<?xml version="1.0" encoding="UTF-8"?>
<svg xmlns="http://www.w3.org/2000/svg" xmlns:xlink="http://www.w3.org/1999/xlink" width="5384pt" height="3936pt" viewBox="0 0 5384 3936" version="1.1">
<g id="surface2254">
<rect x="0" y="0" width="5384" height="3936" style="fill:rgb(100%,100%,100%);fill-opacity:1;stroke:none;"/>
<path style=" stroke:none;fill-rule:evenodd;fill:rgb(71.372551%,78.039217%,78.823531%);fill-opacity:1;" d="M 4174.539063 821.78125 L 4173.375 781.085938 L 4169.292969 740.386719 L 4161.714844 700.40625 L 4151.222656 660.425781 L 4137.230469 619.730469 L 4121.492188 580.460938 L 4101.671875 541.90625 L 4079.519531 504.066406 L 4055.617188 466.226563 L 4027.636719 430.527344 L 3997.90625 394.832031 L 3965.261719 361.273438 L 3929.699219 327.71875 L 3892.390625 296.304688 L 3852.75 265.605469 L 3810.195313 237.046875 L 3766.472656 209.199219 L 3721.003906 183.5 L 3673.199219 159.222656 L 3623.648438 137.089844 L 3572.347656 115.671875 L 3519.300781 97.824219 L 3466.25 79.972656 L 3410.871094 64.980469 L 3354.324219 51.414063 L 3297.777344 39.992188 L 3240.066406 30.710938 L 3181.769531 24.285156 L 3122.890625 18.574219 L 3063.429688 15.71875 L 3003.96875 14.289063 L 2945.089844 15.71875 L 2885.046875 18.574219 L 2826.75 24.285156 L 2768.457031 30.710938 L 2710.160156 39.992188 L 2653.613281 51.414063 L 2597.066406 64.980469 L 2542.269531 79.972656 L 2488.054688 97.824219 L 2436.171875 115.671875 L 2384.871094 137.089844 L 2335.90625 159.222656 L 2287.519531 183.5 L 2242.050781 209.199219 L 2197.746094 237.046875 L 2155.1875 265.605469 L 2115.546875 296.304688 L 2078.238281 327.71875 L 2042.679688 361.273438 L 2010.035156 394.832031 L 1980.304688 430.527344 L 1952.90625 466.226563 L 1927.835938 504.066406 L 1906.851563 541.90625 L 1887.03125 580.460938 L 1870.707031 619.730469 L 1856.71875 660.425781 L 1847.390625 700.40625 L 1839.8125 740.386719 L 1834.566406 781.085938 L 1833.980469 821.78125 L 1834.566406 863.191406 L 1839.8125 903.886719 L 1847.390625 944.582031 L 1856.71875 984.5625 L 1870.707031 1024.546875 L 1887.03125 1063.8125 L 1906.851563 1102.367188 L 1927.835938 1140.921875 L 1952.90625 1178.046875 L 1980.304688 1213.746094 L 2010.035156 1249.445313 L 2042.679688 1283.714844 L 2078.238281 1316.554688 L 2115.546875 1347.96875 L 2155.1875 1378.671875 L 2197.746094 1407.941406 L 2242.050781 1434.359375 L 2287.519531 1461.492188 L 2335.90625 1485.765625 L 2384.871094 1507.898438 L 2436.171875 1527.890625 L 2488.054688 1547.164063 L 2542.269531 1564.300781 L 2597.066406 1579.292969 L 2653.613281 1592.859375 L 2710.160156 1604.28125 L 2768.457031 1612.851563 L 2826.75 1619.988281 L 2885.046875 1626.414063 L 2945.089844 1628.558594 L 3003.96875 1629.269531 L 3063.429688 1628.558594 L 3122.890625 1626.414063 L 3181.769531 1619.988281 L 3240.066406 1612.851563 L 3297.777344 1604.28125 L 3354.324219 1592.859375 L 3410.871094 1579.292969 L 3466.25 1564.300781 L 3519.300781 1547.164063 L 3572.347656 1527.890625 L 3623.648438 1507.898438 L 3673.199219 1485.765625 L 3721.003906 1461.492188 L 3766.472656 1434.359375 L 3810.195313 1407.941406 L 3852.75 1378.671875 L 3892.390625 1347.96875 L 3929.699219 1316.554688 L 3965.261719 1283.714844 L 3997.90625 1249.445313 L 4027.636719 1213.746094 L 4055.617188 1178.046875 L 4079.519531 1140.921875 L 4101.671875 1102.367188 L 4121.492188 1063.8125 L 4137.230469 1024.546875 L 4151.222656 984.5625 L 4161.714844 944.582031 L 4169.292969 903.886719 L 4173.375 863.191406 L 4174.539063 821.78125 "/>
<path style=" stroke:none;fill-rule:evenodd;fill:rgb(71.372551%,78.039217%,78.823531%);fill-opacity:1;" d="M 2339.984375 1245.875 L 2338.820313 1205.179688 L 2334.738281 1164.480469 L 2330.074219 1124.5 L 2321.914063 1083.804688 L 2311.421875 1043.824219 L 2298.597656 1004.554688 L 2283.4375 966 L 2267.117188 928.160156 L 2248.460938 890.320313 L 2227.476563 854.621094 L 2204.742188 818.925781 L 2179.671875 785.367188 L 2151.691406 751.8125 L 2123.125 720.398438 L 2092.8125 689.699219 L 2060.167969 661.140625 L 2027.523438 633.292969 L 1991.378906 607.589844 L 1955.234375 583.316406 L 1916.761719 561.898438 L 1878.285156 539.765625 L 1838.0625 520.488281 L 1796.089844 504.066406 L 1754.117188 489.074219 L 1710.980469 475.507813 L 1667.257813 464.085938 L 1622.953125 454.804688 L 1578.066406 448.378906 L 1533.761719 442.667969 L 1488.289063 439.097656 L 1442.820313 438.382813 L 1397.347656 439.097656 L 1351.878906 442.667969 L 1306.410156 448.378906 L 1262.105469 454.804688 L 1217.21875 464.085938 L 1173.496094 475.507813 L 1130.941406 489.074219 L 1088.96875 504.066406 L 1047.578125 520.488281 L 1007.355469 539.765625 L 967.710938 561.898438 L 930.402344 583.316406 L 893.09375 607.589844 L 858.117188 633.292969 L 824.890625 661.140625 L 792.242188 689.699219 L 761.929688 720.398438 L 732.78125 751.8125 L 705.382813 785.367188 L 680.898438 818.925781 L 657.582031 854.621094 L 637.179688 890.320313 L 617.941406 928.160156 L 601.035156 966 L 586.460938 1004.554688 L 573.636719 1043.824219 L 563.144531 1083.804688 L 555.566406 1124.5 L 549.734375 1164.480469 L 546.238281 1205.179688 L 545.070313 1245.875 L 546.238281 1287.285156 L 549.734375 1327.980469 L 555.566406 1368.675781 L 563.144531 1408.65625 L 573.636719 1448.640625 L 586.460938 1487.90625 L 601.035156 1526.460938 L 617.941406 1564.300781 L 637.179688 1602.140625 L 657.582031 1637.839844 L 680.898438 1673.535156 L 705.382813 1707.09375 L 732.78125 1740.648438 L 761.929688 1772.0625 L 792.242188 1802.765625 L 824.890625 1831.324219 L 858.117188 1858.453125 L 893.09375 1884.15625 L 930.402344 1909.859375 L 967.710938 1931.992188 L 1007.355469 1951.980469 L 1047.578125 1971.972656 L 1088.96875 1988.394531 L 1130.941406 2003.386719 L 1173.496094 2016.953125 L 1217.21875 2027.664063 L 1262.105469 2036.945313 L 1306.410156 2044.082031 L 1351.878906 2050.507813 L 1397.347656 2052.652344 L 1442.820313 2053.363281 L 1488.289063 2052.652344 L 1533.761719 2050.507813 L 1578.066406 2044.082031 L 1622.953125 2036.945313 L 1667.257813 2027.664063 L 1710.980469 2016.953125 L 1754.117188 2003.386719 L 1796.089844 1988.394531 L 1838.0625 1971.972656 L 1878.285156 1951.980469 L 1916.761719 1931.992188 L 1955.234375 1909.859375 L 2027.523438 1858.453125 L 2060.167969 1831.324219 L 2092.8125 1802.765625 L 2123.125 1772.0625 L 2151.691406 1740.648438 L 2179.671875 1707.09375 L 2204.742188 1673.535156 L 2227.476563 1637.839844 L 2248.460938 1602.140625 L 2267.117188 1564.300781 L 2283.4375 1526.460938 L 2298.597656 1487.90625 L 2311.421875 1448.640625 L 2321.914063 1408.65625 L 2330.074219 1368.675781 L 2334.738281 1327.980469 L 2338.820313 1287.285156 L 2339.984375 1245.875 "/>
<path style=" stroke:none;fill-rule:evenodd;fill:rgb(71.372551%,78.039217%,78.823531%);fill-opacity:1;" d="M 1208.472656 2070.5 L 1207.890625 2036.945313 L 1206.140625 2003.386719 L 1202.058594 1969.832031 L 1196.8125 1936.988281 L 1189.234375 1905.574219 L 1180.492188 1872.734375 L 1171.164063 1840.605469 L 1160.085938 1809.902344 L 1147.261719 1779.203125 L 1132.6875 1749.929688 L 1116.949219 1722.085938 L 1100.042969 1693.527344 L 1081.972656 1666.398438 L 1062.734375 1639.980469 L 1041.746094 1615.707031 L 1020.179688 1592.859375 L 998.027344 1569.296875 L 974.707031 1548.59375 L 949.640625 1528.601563 L 923.992188 1510.039063 L 897.757813 1493.617188 L 870.359375 1477.910156 L 842.960938 1464.347656 L 814.394531 1452.207031 L 785.25 1440.785156 L 756.101563 1432.21875 L 726.371094 1423.648438 L 695.472656 1418.652344 L 665.160156 1414.367188 L 635.429688 1412.226563 L 604.53125 1410.800781 L 573.636719 1412.226563 L 542.738281 1414.367188 L 512.425781 1418.652344 L 482.695313 1423.648438 L 452.382813 1432.21875 L 422.652344 1440.785156 L 394.085938 1452.207031 L 366.105469 1464.347656 L 337.539063 1477.910156 L 310.140625 1493.617188 L 283.910156 1510.039063 L 258.257813 1528.601563 L 233.773438 1548.59375 L 209.875 1569.296875 L 187.722656 1592.859375 L 166.152344 1615.707031 L 145.75 1639.980469 L 125.929688 1666.398438 L 107.855469 1693.527344 L 90.949219 1722.085938 L 75.210938 1749.929688 L 61.804688 1779.203125 L 48.976563 1809.902344 L 37.902344 1840.605469 L 27.410156 1872.734375 L 18.664063 1905.574219 L 12.253906 1936.988281 L 7.003906 1969.832031 L 2.34375 2003.386719 L 0.0117188 2036.945313 L 0.0117188 2102.628906 L 2.34375 2136.183594 L 7.003906 2169.027344 L 12.253906 2201.867188 L 18.664063 2235.425781 L 27.410156 2266.839844 L 37.902344 2298.253906 L 48.976563 2329.667969 L 61.804688 2360.367188 L 75.210938 2389.640625 L 90.949219 2418.199219 L 107.855469 2446.042969 L 125.929688 2473.175781 L 145.75 2498.878906 L 166.152344 2523.152344 L 187.722656 2546.710938 L 209.875 2570.273438 L 233.773438 2590.265625 L 258.257813 2610.253906 L 283.910156 2628.816406 L 310.140625 2645.953125 L 337.539063 2661.660156 L 366.105469 2675.226563 L 394.085938 2687.363281 L 422.652344 2698.074219 L 452.382813 2707.355469 L 482.695313 2715.207031 L 512.425781 2721.632813 L 542.738281 2725.203125 L 573.636719 2727.34375 L 604.53125 2728.773438 L 635.429688 2727.34375 L 665.160156 2725.203125 L 695.472656 2721.632813 L 726.371094 2715.207031 L 756.101563 2707.355469 L 785.25 2698.074219 L 814.394531 2687.363281 L 842.960938 2675.226563 L 870.359375 2661.660156 L 897.757813 2645.953125 L 923.992188 2628.816406 L 949.640625 2610.253906 L 974.707031 2590.265625 L 998.027344 2570.273438 L 1020.179688 2546.710938 L 1041.746094 2523.152344 L 1062.734375 2498.878906 L 1081.972656 2473.175781 L 1100.042969 2446.042969 L 1116.949219 2418.199219 L 1132.6875 2389.640625 L 1147.261719 2360.367188 L 1160.085938 2329.667969 L 1171.164063 2298.253906 L 1180.492188 2266.839844 L 1189.234375 2235.425781 L 1196.8125 2201.867188 L 1202.058594 2169.027344 L 1206.140625 2136.183594 L 1207.890625 2102.628906 L 1208.472656 2070.5 "/>
<path style=" stroke:none;fill-rule:evenodd;fill:rgb(71.372551%,78.039217%,78.823531%);fill-opacity:1;" d="M 2184.335938 2705.210938 L 2183.753906 2668.800781 L 2179.671875 2633.101563 L 2173.261719 2596.691406 L 2165.683594 2560.992188 L 2155.1875 2526.007813 L 2142.945313 2491.023438 L 2127.207031 2456.753906 L 2110.882813 2423.195313 L 2091.0625 2391.78125 L 2070.078125 2358.941406 L 2046.175781 2327.527344 L 2021.109375 2298.253906 L 1994.292969 2268.980469 L 1965.144531 2239.707031 L 1934.25 2213.292969 L 1901.605469 2187.589844 L 1867.210938 2164.027344 L 1831.066406 2140.46875 L 1794.339844 2119.761719 L 1755.867188 2099.058594 L 1715.640625 2081.210938 L 1674.835938 2064.074219 L 1632.863281 2049.082031 L 1590.308594 2035.515625 L 1546.585938 2024.09375 L 1501.699219 2014.8125 L 1457.394531 2006.242188 L 1411.921875 1999.105469 L 1366.453125 1994.820313 L 1320.398438 1991.964844 L 1273.761719 1991.25 L 1227.710938 1991.964844 L 1182.238281 1994.820313 L 1135.601563 1999.105469 L 1090.714844 2006.242188 L 1045.246094 2014.8125 L 1001.523438 2024.09375 L 957.800781 2035.515625 L 914.664063 2049.082031 L 872.691406 2064.074219 L 832.46875 2081.210938 L 792.242188 2099.058594 L 753.769531 2119.761719 L 716.460938 2140.46875 L 680.898438 2164.027344 L 646.503906 2187.589844 L 613.859375 2213.292969 L 582.964844 2239.707031 L 553.816406 2268.980469 L 526.417969 2298.253906 L 501.351563 2327.527344 L 477.449219 2358.941406 L 455.878906 2391.78125 L 437.226563 2423.195313 L 420.320313 2456.753906 L 404.578125 2491.023438 L 391.753906 2526.007813 L 382.425781 2560.992188 L 373.683594 2596.691406 L 367.855469 2633.101563 L 364.355469 2668.800781 L 363.191406 2705.210938 L 364.355469 2740.910156 L 367.855469 2777.324219 L 373.683594 2813.019531 L 382.425781 2848.71875 L 391.753906 2883.703125 L 404.578125 2918.6875 L 420.320313 2953.671875 L 437.226563 2987.226563 L 455.878906 3019.355469 L 477.449219 3050.769531 L 501.351563 3082.183594 L 526.417969 3112.171875 L 553.816406 3142.15625 L 582.964844 3170.714844 L 613.859375 3197.132813 L 646.503906 3222.121094 L 680.898438 3246.394531 L 716.460938 3269.242188 L 753.769531 3290.660156 L 792.242188 3311.367188 L 832.46875 3329.214844 L 872.691406 3346.351563 L 914.664063 3360.628906 L 957.800781 3374.195313 L 1001.523438 3385.617188 L 1045.246094 3395.613281 L 1090.714844 3404.894531 L 1135.601563 3411.320313 L 1182.238281 3415.605469 L 1227.710938 3418.460938 L 1320.398438 3418.460938 L 1366.453125 3415.605469 L 1411.921875 3411.320313 L 1457.394531 3404.894531 L 1501.699219 3395.613281 L 1546.585938 3385.617188 L 1590.308594 3374.195313 L 1632.863281 3360.628906 L 1674.835938 3346.351563 L 1715.640625 3329.214844 L 1755.867188 3311.367188 L 1794.339844 3290.660156 L 1831.066406 3269.242188 L 1867.210938 3246.394531 L 1901.605469 3222.121094 L 1934.25 3197.132813 L 1965.144531 3170.714844 L 1994.292969 3142.15625 L 2021.109375 3112.171875 L 2046.175781 3082.183594 L 2070.078125 3050.769531 L 2091.0625 3019.355469 L 2110.882813 2987.226563 L 2127.207031 2953.671875 L 2142.945313 2918.6875 L 2155.1875 2883.703125 L 2165.683594 2848.71875 L 2173.261719 2813.019531 L 2179.671875 2777.324219 L 2183.753906 2740.910156 L 2184.335938 2705.210938 "/>
<path style=" stroke:none;fill-rule:evenodd;fill:rgb(71.372551%,78.039217%,78.823531%);fill-opacity:1;" d="M 4369.828125 3074.332031 L 4367.496094 3030.777344 L 4362.835938 2987.226563 L 4353.507813 2945.101563 L 4341.265625 2902.980469 L 4326.109375 2860.855469 L 4307.453125 2820.160156 L 4285.300781 2780.179688 L 4259.652344 2739.480469 L 4230.503906 2700.214844 L 4199.023438 2662.375 L 4163.464844 2625.960938 L 4126.15625 2590.265625 L 4085.347656 2555.28125 L 4042.210938 2521.722656 L 3994.992188 2489.59375 L 3947.1875 2459.609375 L 3895.886719 2430.335938 L 3842.257813 2403.207031 L 3787.460938 2378.21875 L 3729.164063 2354.65625 L 3670.285156 2332.523438 L 3609.074219 2313.246094 L 3546.699219 2294.683594 L 3481.992188 2278.976563 L 3417.285156 2264.699219 L 3350.828125 2253.273438 L 3284.371094 2243.277344 L 3215.582031 2236.140625 L 3148.542969 2231.140625 L 3079.171875 2226.859375 L 2941.59375 2226.859375 L 2872.804688 2231.140625 L 2804.597656 2236.140625 L 2736.976563 2243.277344 L 2669.355469 2253.273438 L 2603.480469 2264.699219 L 2538.191406 2278.976563 L 2474.648438 2294.683594 L 2411.105469 2313.246094 L 2351.0625 2332.523438 L 2291.015625 2354.65625 L 2233.886719 2378.21875 L 2178.507813 2403.207031 L 2125.457031 2430.335938 L 2074.160156 2459.609375 L 2025.191406 2489.59375 L 1979.136719 2521.722656 L 1936 2555.28125 L 1894.609375 2590.265625 L 1856.71875 2625.960938 L 1821.738281 2662.375 L 1790.84375 2700.214844 L 1761.695313 2739.480469 L 1736.046875 2780.179688 L 1713.894531 2820.160156 L 1694.65625 2860.855469 L 1679.5 2902.980469 L 1666.675781 2945.101563 L 1657.929688 2987.226563 L 1652.683594 3030.777344 L 1650.933594 3074.332031 L 1652.683594 3115.742188 L 1657.929688 3159.292969 L 1666.675781 3201.414063 L 1679.5 3244.253906 L 1694.65625 3286.378906 L 1713.894531 3327.074219 L 1736.046875 3367.054688 L 1761.695313 3407.75 L 1790.84375 3447.019531 L 1821.738281 3484.859375 L 1856.71875 3521.269531 L 1894.609375 3558.398438 L 1936 3591.953125 L 1979.136719 3625.507813 L 2025.191406 3656.921875 L 2074.160156 3688.339844 L 2125.457031 3716.894531 L 2178.507813 3744.027344 L 2233.886719 3769.015625 L 2291.015625 3793.289063 L 2351.0625 3813.996094 L 2411.105469 3833.984375 L 2474.648438 3851.835938 L 2538.191406 3867.542969 L 2603.480469 3882.535156 L 2669.355469 3893.246094 L 2736.976563 3903.242188 L 2804.597656 3911.09375 L 2872.804688 3916.09375 L 2941.59375 3920.375 L 3079.171875 3920.375 L 3148.542969 3916.09375 L 3215.582031 3911.09375 L 3284.371094 3903.242188 L 3350.828125 3893.246094 L 3417.285156 3882.535156 L 3481.992188 3867.542969 L 3546.699219 3851.835938 L 3609.074219 3833.984375 L 3670.285156 3813.996094 L 3729.164063 3793.289063 L 3787.460938 3769.015625 L 3842.257813 3744.027344 L 3895.886719 3716.894531 L 3947.1875 3688.339844 L 3994.992188 3656.921875 L 4042.210938 3625.507813 L 4085.347656 3591.953125 L 4126.15625 3558.398438 L 4163.464844 3521.269531 L 4199.023438 3484.859375 L 4230.503906 3447.019531 L 4259.652344 3407.75 L 4285.300781 3367.054688 L 4307.453125 3327.074219 L 4326.109375 3286.378906 L 4341.265625 3244.253906 L 4353.507813 3201.414063 L 4362.835938 3159.292969 L 4367.496094 3115.742188 L 4369.828125 3074.332031 "/>
<path style=" stroke:none;fill-rule:evenodd;fill:rgb(71.372551%,78.039217%,78.823531%);fill-opacity:1;" d="M 5124.171875 1120.214844 L 5123.589844 1088.800781 L 5120.089844 1055.960938 L 5113.679688 1023.832031 L 5106.683594 992.417969 L 5096.191406 961.71875 L 5084.53125 930.300781 L 5069.957031 899.601563 L 5053.050781 869.617188 L 5034.980469 841.058594 L 5015.160156 811.785156 L 4992.425781 783.941406 L 4967.941406 756.808594 L 4942.289063 731.820313 L 4913.726563 706.117188 L 4884.578125 682.558594 L 4852.515625 660.425781 L 4819.871094 637.578125 L 4786.058594 617.585938 L 4749.914063 599.023438 L 4713.1875 581.175781 L 4675.878906 564.753906 L 4636.238281 549.761719 L 4596.015625 536.195313 L 4555.207031 524.058594 L 4513.234375 513.347656 L 4471.261719 506.210938 L 4428.125 497.640625 L 4384.988281 491.929688 L 4340.683594 488.359375 L 4296.960938 486.21875 L 4252.65625 484.789063 L 4207.769531 486.21875 L 4164.046875 488.359375 L 4119.742188 491.929688 L 4076.605469 497.640625 L 4034.046875 506.210938 L 3991.492188 513.347656 L 3950.101563 524.058594 L 3908.714844 536.195313 L 3868.488281 549.761719 L 3828.847656 564.753906 L 3790.957031 581.175781 L 3754.8125 599.023438 L 3718.671875 617.585938 L 3684.859375 637.578125 L 3652.214844 660.425781 L 3620.734375 682.558594 L 3591.003906 706.117188 L 3562.4375 731.820313 L 3536.789063 756.808594 L 3512.886719 783.941406 L 3489.570313 811.785156 L 3469.75 841.058594 L 3451.679688 869.617188 L 3434.773438 899.601563 L 3420.199219 930.300781 L 3408.539063 961.71875 L 3398.628906 992.417969 L 3390.46875 1023.832031 L 3385.222656 1055.960938 L 3382.304688 1088.800781 L 3380.558594 1120.214844 L 3382.304688 1152.34375 L 3385.222656 1184.472656 L 3390.46875 1215.886719 L 3398.628906 1248.015625 L 3408.539063 1279.429688 L 3420.199219 1310.128906 L 3434.773438 1340.832031 L 3451.679688 1370.816406 L 3469.75 1400.804688 L 3489.570313 1428.648438 L 3512.886719 1455.777344 L 3536.789063 1483.625 L 3562.4375 1509.324219 L 3591.003906 1533.601563 L 3620.734375 1557.875 L 3652.214844 1580.722656 L 3684.859375 1602.140625 L 3718.671875 1622.132813 L 3754.8125 1642.121094 L 3790.957031 1659.972656 L 3828.847656 1675.679688 L 3868.488281 1691.386719 L 3908.714844 1704.238281 L 3950.101563 1715.660156 L 3991.492188 1727.085938 L 4034.046875 1735.652344 L 4076.605469 1742.792969 L 4119.742188 1749.21875 L 4164.046875 1752.074219 L 4207.769531 1755.644531 L 4296.960938 1755.644531 L 4340.683594 1752.074219 L 4384.988281 1749.21875 L 4428.125 1742.792969 L 4471.261719 1735.652344 L 4513.234375 1727.085938 L 4555.207031 1715.660156 L 4596.015625 1704.238281 L 4636.238281 1691.386719 L 4675.878906 1675.679688 L 4713.1875 1659.972656 L 4749.914063 1642.121094 L 4786.058594 1622.132813 L 4819.871094 1602.140625 L 4852.515625 1580.722656 L 4884.578125 1557.875 L 4913.726563 1533.601563 L 4942.289063 1509.324219 L 4967.941406 1483.625 L 4992.425781 1455.777344 L 5015.160156 1428.648438 L 5034.980469 1400.804688 L 5053.050781 1370.816406 L 5069.957031 1340.832031 L 5084.53125 1310.128906 L 5096.191406 1279.429688 L 5106.683594 1248.015625 L 5113.679688 1215.886719 L 5120.089844 1184.472656 L 5123.589844 1152.34375 L 5124.171875 1120.214844 "/>
<path style=" stroke:none;fill-rule:evenodd;fill:rgb(71.372551%,78.039217%,78.823531%);fill-opacity:1;" d="M 5371.34375 1936.273438 L 5369.59375 1904.148438 L 5367.261719 1872.019531 L 5361.433594 1840.605469 L 5353.855469 1809.191406 L 5343.363281 1777.0625 L 5331.703125 1747.074219 L 5317.710938 1715.660156 L 5300.804688 1686.386719 L 5282.734375 1656.402344 L 5262.914063 1628.558594 L 5240.179688 1600 L 5215.695313 1573.582031 L 5190.628906 1548.59375 L 5162.0625 1522.175781 L 5132.914063 1499.332031 L 5102.601563 1475.769531 L 5069.957031 1454.351563 L 5034.980469 1434.359375 L 5000.585938 1415.082031 L 4963.859375 1397.234375 L 4926.550781 1380.8125 L 4887.492188 1365.820313 L 4847.851563 1352.96875 L 4807.042969 1340.832031 L 4765.070313 1330.121094 L 4723.097656 1321.554688 L 4680.542969 1314.414063 L 4636.824219 1307.988281 L 4593.683594 1305.132813 L 4549.960938 1302.992188 L 4506.242188 1301.5625 L 4461.9375 1302.992188 L 4418.796875 1305.132813 L 4375.078125 1307.988281 L 4332.519531 1314.414063 L 4289.964844 1321.554688 L 4247.410156 1330.121094 L 4206.019531 1340.832031 L 4165.796875 1352.96875 L 4125.570313 1365.820313 L 4086.515625 1380.8125 L 4049.207031 1397.234375 L 4012.480469 1415.082031 L 3976.917969 1434.359375 L 3943.691406 1454.351563 L 3911.046875 1475.769531 L 3878.984375 1499.332031 L 3849.835938 1522.175781 L 3822.4375 1548.59375 L 3797.371094 1573.582031 L 3772.886719 1600 L 3750.734375 1628.558594 L 3729.746094 1656.402344 L 3711.675781 1686.386719 L 3695.933594 1715.660156 L 3681.363281 1747.074219 L 3668.535156 1777.0625 L 3659.210938 1809.191406 L 3651.632813 1840.605469 L 3645.800781 1872.019531 L 3642.304688 1904.148438 L 3641.71875 1936.273438 L 3642.304688 1968.402344 L 3645.800781 2001.246094 L 3651.632813 2032.660156 L 3659.210938 2064.074219 L 3668.535156 2095.488281 L 3681.363281 2126.1875 L 3695.933594 2157.601563 L 3711.675781 2186.875 L 3729.746094 2215.433594 L 3750.734375 2244.707031 L 3772.886719 2271.835938 L 3797.371094 2298.96875 L 3822.4375 2324.671875 L 3849.835938 2349.660156 L 3878.984375 2373.933594 L 3911.046875 2396.066406 L 3943.691406 2418.199219 L 3976.917969 2438.191406 L 4012.480469 2456.753906 L 4049.207031 2474.601563 L 4086.515625 2491.023438 L 4125.570313 2506.015625 L 4165.796875 2519.582031 L 4206.019531 2532.433594 L 4247.410156 2543.144531 L 4289.964844 2550.28125 L 4332.519531 2558.851563 L 4375.078125 2563.847656 L 4418.796875 2568.132813 L 4461.9375 2570.273438 L 4506.242188 2570.988281 L 4549.960938 2570.273438 L 4593.683594 2568.132813 L 4636.824219 2563.847656 L 4680.542969 2558.851563 L 4723.097656 2550.28125 L 4765.070313 2543.144531 L 4807.042969 2532.433594 L 4847.851563 2519.582031 L 4887.492188 2506.015625 L 4926.550781 2491.023438 L 4963.859375 2474.601563 L 5000.585938 2456.753906 L 5034.980469 2438.191406 L 5069.957031 2418.199219 L 5102.601563 2396.066406 L 5132.914063 2373.933594 L 5162.0625 2349.660156 L 5190.628906 2324.671875 L 5215.695313 2298.96875 L 5240.179688 2271.835938 L 5262.914063 2244.707031 L 5282.734375 2215.433594 L 5300.804688 2186.875 L 5317.710938 2157.601563 L 5331.703125 2126.1875 L 5343.363281 2095.488281 L 5353.855469 2064.074219 L 5361.433594 2032.660156 L 5367.261719 2001.246094 L 5369.59375 1968.402344 L 5371.34375 1936.273438 "/>
<path style=" stroke:none;fill-rule:evenodd;fill:rgb(71.372551%,78.039217%,78.823531%);fill-opacity:1;" d="M 5202.289063 2610.96875 L 5201.121094 2558.851563 L 5197.625 2505.304688 L 5192.960938 2453.898438 L 5185.382813 2401.0625 L 5175.472656 2349.660156 L 5163.230469 2298.96875 L 5149.238281 2248.992188 L 5132.332031 2199.726563 L 5114.261719 2151.890625 L 5095.023438 2104.769531 L 5072.871094 2059.078125 L 5048.386719 2015.523438 L 5022.738281 1972.6875 L 4994.753906 1931.992188 L 4965.609375 1892.722656 L 4935.292969 1854.882813 L 4902.648438 1819.183594 L 4869.421875 1787.058594 L 4833.859375 1755.644531 L 4797.71875 1727.085938 L 4760.410156 1699.953125 L 4722.515625 1675.679688 L 4682.875 1652.832031 L 4642.652344 1632.839844 L 4600.679688 1615.707031 L 4559.289063 1602.140625 L 4516.152344 1589.289063 L 4473.59375 1580.007813 L 4431.039063 1573.582031 L 4387.902344 1569.296875 L 4344.179688 1568.585938 L 4300.457031 1569.296875 L 4257.320313 1573.582031 L 4213.597656 1580.007813 L 4171.042969 1589.289063 L 4129.070313 1602.140625 L 4086.515625 1615.707031 L 4045.707031 1632.839844 L 4005.484375 1652.832031 L 3965.84375 1675.679688 L 3926.785156 1699.953125 L 3889.476563 1727.085938 L 3853.332031 1755.644531 L 3818.9375 1787.058594 L 3784.542969 1819.183594 L 3752.480469 1854.882813 L 3721.585938 1892.722656 L 3692.4375 1931.992188 L 3665.039063 1972.6875 L 3638.804688 2015.523438 L 3615.488281 2059.078125 L 3593.335938 2104.769531 L 3572.933594 2151.890625 L 3554.859375 2199.726563 L 3539.121094 2248.992188 L 3525.128906 2298.96875 L 3512.886719 2349.660156 L 3502.976563 2401.0625 L 3495.398438 2453.898438 L 3489.570313 2505.304688 L 3486.070313 2558.851563 L 3484.90625 2610.96875 L 3486.070313 2663.800781 L 3489.570313 2717.347656 L 3495.398438 2768.753906 L 3502.976563 2820.875 L 3512.886719 2873.707031 L 3525.128906 2923.683594 L 3539.121094 2972.949219 L 3554.859375 3022.925781 L 3572.933594 3070.046875 L 3593.335938 3117.167969 L 3615.488281 3163.574219 L 3638.804688 3207.128906 L 3665.039063 3249.25 L 3692.4375 3290.660156 L 3721.585938 3329.929688 L 3752.480469 3367.054688 L 3784.542969 3402.753906 L 3818.9375 3436.308594 L 3853.332031 3467.007813 L 3889.476563 3496.28125 L 3926.785156 3522.699219 L 3965.84375 3547.6875 L 4005.484375 3569.820313 L 4045.707031 3589.8125 L 4086.515625 3606.230469 L 4129.070313 3621.226563 L 4171.042969 3632.648438 L 4213.597656 3641.929688 L 4257.320313 3648.355469 L 4300.457031 3652.640625 L 4344.179688 3654.78125 L 4387.902344 3652.640625 L 4431.039063 3648.355469 L 4473.59375 3641.929688 L 4516.152344 3632.648438 L 4559.289063 3621.226563 L 4600.679688 3606.230469 L 4642.652344 3589.8125 L 4682.875 3569.820313 L 4722.515625 3547.6875 L 4760.410156 3522.699219 L 4797.71875 3496.28125 L 4833.859375 3467.007813 L 4869.421875 3436.308594 L 4902.648438 3402.753906 L 4935.292969 3367.054688 L 4965.609375 3329.929688 L 4994.753906 3290.660156 L 5022.738281 3249.25 L 5048.386719 3207.128906 L 5072.871094 3163.574219 L 5095.023438 3117.167969 L 5114.261719 3070.046875 L 5132.332031 3022.925781 L 5149.238281 2972.949219 L 5163.230469 2923.683594 L 5175.472656 2873.707031 L 5185.382813 2820.875 L 5192.960938 2768.753906 L 5197.625 2717.347656 L 5201.121094 2663.800781 L 5202.289063 2610.96875 "/>
<path style=" stroke:none;fill-rule:evenodd;fill:rgb(71.372551%,78.039217%,78.823531%);fill-opacity:1;" d="M 4460.769531 1983.398438 L 4458.4375 1929.847656 L 4451.441406 1878.445313 L 4440.367188 1824.898438 L 4425.210938 1773.492188 L 4405.390625 1722.085938 L 4380.90625 1670.679688 L 4352.339844 1620.703125 L 4319.113281 1571.441406 L 4282.96875 1523.605469 L 4242.164063 1477.199219 L 4196.691406 1430.789063 L 4148.308594 1386.523438 L 4095.839844 1345.113281 L 4039.878906 1303.703125 L 3980.417969 1263.722656 L 3918.625 1226.597656 L 3852.75 1191.613281 L 3783.960938 1158.054688 L 3713.425781 1126.640625 L 3639.390625 1097.371094 L 3563.023438 1070.953125 L 3484.90625 1045.964844 L 3405.042969 1023.832031 L 3323.429688 1004.554688 L 3239.484375 988.132813 L 3154.371094 973.140625 L 3068.675781 961.71875 L 2981.816406 952.433594 L 2894.375 944.582031 L 2806.347656 941.011719 L 2717.15625 939.585938 L 2629.128906 941.011719 L 2541.105469 944.582031 L 2453.660156 952.433594 L 2366.21875 961.71875 L 2280.523438 973.140625 L 2195.414063 988.132813 L 2112.050781 1004.554688 L 2030.4375 1023.832031 L 1949.40625 1045.964844 L 1872.457031 1070.953125 L 1796.089844 1097.371094 L 1721.472656 1126.640625 L 1650.351563 1158.054688 L 1582.730469 1191.613281 L 1516.273438 1226.597656 L 1453.894531 1263.722656 L 1395.601563 1303.703125 L 1339.054688 1345.113281 L 1286.589844 1386.523438 L 1238.785156 1430.789063 L 1193.316406 1477.199219 L 1153.09375 1523.605469 L 1116.367188 1571.441406 L 1082.554688 1620.703125 L 1054.574219 1670.679688 L 1030.671875 1722.085938 L 1009.683594 1773.492188 L 994.527344 1824.898438 L 983.453125 1878.445313 L 976.457031 1929.847656 L 974.707031 1983.398438 L 976.457031 2035.515625 L 983.453125 2088.347656 L 994.527344 2140.46875 L 1009.683594 2193.300781 L 1030.671875 2244.707031 L 1054.574219 2295.398438 L 1082.554688 2344.660156 L 1116.367188 2394.640625 L 1153.09375 2443.1875 L 1193.316406 2489.59375 L 1238.785156 2534.574219 L 1286.589844 2578.839844 L 1339.054688 2621.679688 L 1395.601563 2662.375 L 1453.894531 2701.640625 L 1516.273438 2739.480469 L 1582.730469 2775.179688 L 1650.351563 2808.738281 L 1721.472656 2840.152344 L 1796.089844 2867.996094 L 1872.457031 2895.839844 L 1949.40625 2919.402344 L 2030.4375 2941.535156 L 2112.050781 2961.523438 L 2195.414063 2978.660156 L 2280.523438 2992.9375 L 2366.21875 3005.078125 L 2453.660156 3014.359375 L 2541.105469 3020.785156 L 2629.128906 3025.78125 L 2717.15625 3026.496094 L 2806.347656 3025.78125 L 2894.375 3020.785156 L 2981.816406 3014.359375 L 3068.675781 3005.078125 L 3154.371094 2992.9375 L 3239.484375 2978.660156 L 3323.429688 2961.523438 L 3405.042969 2941.535156 L 3484.90625 2919.402344 L 3563.023438 2895.839844 L 3639.390625 2867.996094 L 3713.425781 2840.152344 L 3783.960938 2808.738281 L 3852.75 2775.179688 L 3918.625 2739.480469 L 3980.417969 2701.640625 L 4039.878906 2662.375 L 4095.839844 2621.679688 L 4148.308594 2578.839844 L 4196.691406 2534.574219 L 4242.164063 2489.59375 L 4282.96875 2443.1875 L 4319.113281 2394.640625 L 4352.339844 2344.660156 L 4380.90625 2295.398438 L 4405.390625 2244.707031 L 4425.210938 2193.300781 L 4440.367188 2140.46875 L 4451.441406 2088.347656 L 4458.4375 2035.515625 L 4460.769531 1983.398438 "/>
<path style=" stroke:none;fill-rule:evenodd;fill:rgb(71.372551%,78.039217%,78.823531%);fill-opacity:1;" d="M 3017.378906 814.640625 L 4171.042969 634.722656 L 4156.46875 595.453125 L 4138.398438 555.472656 L 4118.578125 516.203125 L 4094.675781 478.363281 L 4069.027344 441.953125 L 4039.878906 404.828125 L 4009.5625 369.84375 L 3974.585938 336.285156 L 3939.027344 303.445313 L 3900.550781 272.03125 L 3859.164063 242.042969 L 3816.023438 214.199219 L 3770.554688 187.066406 L 3723.335938 160.652344 L 3674.367188 137.089844 L 3623.648438 115.671875 L 3572.347656 94.253906 L 3518.132813 76.402344 L 3463.335938 59.984375 L 3407.957031 44.988281 L 3350.242188 32.136719 L 3292.53125 22.144531 L 3234.234375 12.859375 L 3175.359375 6.4375 L 3115.898438 2.152344 L 3055.851563 0.0117188 L 2996.390625 0.0117188 L 2936.347656 2.152344 L 2876.300781 5.007813 L 2818.007813 10.71875 L 2759.128906 20 L 2700.832031 29.28125 L 2643.121094 42.132813 L 2586.574219 55.699219 L 2531.777344 71.40625 L 2478.144531 89.253906 L 2425.097656 109.246094 L 2373.796875 129.949219 L 2325.410156 153.511719 L 2277.609375 178.5 L 2231.554688 204.917969 L 2187.835938 232.761719 L 2146.445313 262.746094 L 2107.386719 294.164063 L 2070.078125 326.289063 L 2035.101563 359.847656 L 2002.457031 394.832031 L 1972.726563 430.527344 L 1947.074219 468.367188 L 1922.007813 504.78125 L 1900.4375 544.050781 L 1882.367188 582.601563 L 1867.210938 622.585938 L 1854.386719 662.566406 L 3017.378906 814.640625 "/>
<path style="fill:none;stroke-width:0.05;stroke-linecap:butt;stroke-linejoin:miter;stroke:rgb(42.352942%,56.078434%,57.647061%);stroke-opacity:1;stroke-miterlimit:10;" d="M 97.299648 -49.772252 L 96.541836 -51.771275 L 95.667422 -53.734752 L 94.647109 -55.698033 L 93.481289 -57.554283 L 92.140469 -59.410728 L 90.712344 -61.231236 L 89.167422 -62.980455 L 87.418594 -64.658384 L 85.611367 -66.264634 L 83.745938 -67.835338 L 81.647305 -69.406236 L 79.548672 -70.798423 L 77.245938 -72.154869 L 74.885 -73.404283 L 72.465859 -74.653697 L 69.929922 -75.724791 L 67.335781 -76.724205 L 64.625039 -77.65233 L 61.885195 -78.437681 L 59.145352 -79.187486 L 56.259609 -79.830064 L 53.344961 -80.329673 L 50.430117 -80.793931 L 47.486172 -81.115025 L 44.542422 -81.329283 L 41.510977 -81.436314 L 38.53793 -81.436314 L 35.564883 -81.329283 L 32.591836 -81.186509 L 29.618789 -80.900963 L 26.703945 -80.4369 L 23.789102 -80.008384 L 20.932656 -79.401548 L 18.134609 -78.651939 L 15.336367 -77.866588 L 12.683828 -76.974205 L 10.031484 -75.974595 L 7.495547 -74.939439 L 5.018008 -73.797056 L 2.65707 -72.5119 L 0.354531 -71.191002 L -1.831602 -69.834556 L -3.901133 -68.335142 L -5.883164 -66.800181 L -7.748594 -65.157994 L -9.497422 -63.480259 L -11.071445 -61.766783 L -12.58707 -59.910533 L -13.898789 -58.125572 L -15.123008 -56.23358 L -16.172227 -54.341588 L -17.134141 -52.378111 L -17.891953 -50.379088 L -18.504062 -48.379869 " transform="matrix(20,0,0,20,2225.05,1628.738)"/>
<path style=" stroke:none;fill-rule:evenodd;fill:rgb(71.372551%,78.039217%,78.823531%);fill-opacity:1;" d="M 1448.648438 1238.019531 L 2030.4375 613.304688 L 1994.292969 587.601563 L 1956.402344 563.324219 L 1917.925781 541.90625 L 1878.285156 520.488281 L 1838.0625 501.925781 L 1796.089844 484.789063 L 1752.953125 470.511719 L 1710.394531 456.945313 L 1665.507813 446.234375 L 1621.203125 436.953125 L 1575.734375 430.527344 L 1530.261719 425.53125 L 1484.792969 422.675781 L 1439.320313 422.675781 L 1393.269531 424.101563 L 1347.796875 428.386719 L 1302.328125 433.386719 L 1257.441406 441.238281 L 1213.136719 451.234375 L 1169.414063 462.65625 L 1125.691406 476.222656 L 1083.71875 491.929688 L 1041.746094 509.777344 L 1001.523438 529.054688 L 962.464844 550.476563 L 925.15625 574.035156 L 887.847656 599.023438 L 852.871094 624.726563 L 819.644531 653.285156 L 786.996094 682.558594 L 756.683594 713.972656 L 728.703125 745.386719 L 701.886719 779.65625 L 677.402344 813.925781 L 654.082031 849.625 L 633.679688 886.75 L 614.441406 924.589844 L 598.121094 962.429688 L 583.546875 1001.699219 L 571.886719 1041.679688 L 562.558594 1081.664063 L 554.398438 1123.074219 L 548.570313 1164.480469 L 546.238281 1205.179688 L 545.070313 1245.875 L 546.820313 1287.285156 L 550.316406 1329.40625 L 557.3125 1369.390625 L 1448.648438 1238.019531 "/>
<path style="fill:none;stroke-width:0.05;stroke-linecap:butt;stroke-linejoin:miter;stroke:rgb(42.352942%,56.078434%,57.647061%);stroke-opacity:1;stroke-miterlimit:10;" d="M -9.876328 -50.878892 L -11.683555 -52.164048 L -13.519883 -53.341978 L -15.443516 -54.448619 L -17.454844 -55.448228 L -19.52418 -56.412095 L -21.593711 -57.232994 L -23.721445 -57.982798 L -25.907578 -58.625377 L -28.093711 -59.125181 L -30.367148 -59.589244 L -32.611484 -59.910533 L -34.856016 -60.160338 L -37.129453 -60.303111 L -39.461289 -60.303111 L -41.676523 -60.231822 L -43.949961 -60.017564 L -46.281797 -59.767564 L -48.497031 -59.339244 L -50.683164 -58.875181 L -52.9275 -58.232603 L -55.055234 -57.590025 L -57.153867 -56.768931 L -59.223398 -55.876548 L -61.263828 -54.912681 L -63.216562 -53.841783 L -65.081992 -52.663658 L -66.889219 -51.449986 L -68.638047 -50.093541 L -70.357773 -48.7369 L -71.902695 -47.201939 L -73.447422 -45.702525 L -74.875742 -44.060533 L -76.187266 -42.418345 L -77.440781 -40.704869 L -78.548398 -38.884166 L -79.568516 -37.027916 L -80.53043 -35.135923 L -81.375547 -33.243931 L -82.075156 -31.244908 L -82.658164 -29.317173 L -83.182773 -27.282408 L -83.532578 -25.2119 L -83.823984 -23.177134 L -83.940586 -21.142369 L -83.998984 -19.071861 L -83.853281 -17.037095 L -83.678281 -14.966588 L -83.386875 -12.89608 " transform="matrix(20,0,0,20,2225.05,1628.738)"/>
<path style=" stroke:none;fill-rule:evenodd;fill:rgb(71.372551%,78.039217%,78.823531%);fill-opacity:1;" d="M 1286.589844 2697.359375 L 350.363281 2675.226563 L 350.363281 2713.066406 L 352.113281 2748.765625 L 356.777344 2786.605469 L 364.355469 2822.300781 L 373.101563 2858.714844 L 384.175781 2895.839844 L 398.75 2930.109375 L 413.90625 2965.09375 L 433.144531 2999.363281 L 453.546875 3032.207031 L 475.117188 3065.761719 L 500.765625 3097.175781 L 526.417969 3127.878906 L 555.566406 3157.148438 L 585.296875 3185.707031 L 617.359375 3212.839844 L 651.753906 3237.828125 L 686.730469 3262.101563 L 723.457031 3286.378906 L 761.929688 3307.082031 L 801.570313 3327.074219 L 842.960938 3346.351563 L 926.90625 3377.765625 L 971.210938 3391.328125 L 1016.097656 3402.753906 L 1061.570313 3412.035156 L 1107.621094 3420.601563 L 1153.675781 3427.027344 L 1200.3125 3431.3125 L 1247.53125 3433.453125 L 1295.332031 3433.453125 L 1341.386719 3432.027344 L 1388.605469 3429.167969 L 1435.242188 3424.886719 L 1481.292969 3418.460938 L 1527.929688 3409.179688 L 1572.234375 3398.46875 L 1617.707031 3387.046875 L 1660.261719 3372.050781 L 1703.398438 3357.773438 L 1745.371094 3339.925781 L 1785.015625 3320.648438 L 1825.238281 3299.941406 L 1861.964844 3277.808594 L 1898.691406 3254.964844 L 1286.589844 2697.359375 "/>
<path style="fill:none;stroke-width:0.05;stroke-linecap:butt;stroke-linejoin:miter;stroke:rgb(42.352942%,56.078434%,57.647061%);stroke-opacity:1;stroke-miterlimit:10;" d="M -93.675938 52.324428 L -93.763437 54.144936 L -93.588437 56.001381 L -93.413633 57.821889 L -93.034727 59.678139 L -92.597422 61.4631 L -92.014609 63.283803 L -91.315 65.068569 L -90.498789 66.817788 L -89.595273 68.495717 L -88.633359 70.173452 L -87.496641 71.779897 L -86.301523 73.386342 L -84.931602 74.885561 L -83.532578 76.420522 L -82.016953 77.777163 L -80.44293 79.133608 L -78.752305 80.454506 L -77.003477 81.668178 L -75.167148 82.810561 L -73.243516 83.881459 L -71.261484 84.881069 L -69.250156 85.809194 L -67.151523 86.66603 L -64.965586 87.451381 L -62.808555 88.058217 L -60.59332 88.629311 L -58.319883 89.164858 L -55.988047 89.521889 L -53.685312 89.914467 L -51.382578 90.057241 L -49.021641 90.235756 L -44.328867 90.235756 L -41.997031 90.057241 L -39.665391 89.807436 L -37.362656 89.486147 L -35.03082 89.057827 L -32.815586 88.558022 L -30.542148 87.951186 L -28.385117 87.237123 L -26.286484 86.451772 L -24.187852 85.594936 L -22.176719 84.666811 L -20.165586 83.667397 L -18.270859 82.560756 L -16.49293 81.418373 " transform="matrix(20,0,0,20,2225.05,1628.738)"/>
<path style=" stroke:none;fill-rule:evenodd;fill:rgb(71.372551%,78.039217%,78.823531%);fill-opacity:1;" d="M 4265.480469 1105.222656 L 5089.195313 1311.558594 L 5103.183594 1280.859375 L 5113.679688 1250.15625 L 5123.589844 1218.742188 L 5129.417969 1186.613281 L 5135.246094 1154.488281 L 5136.414063 1122.359375 L 5136.414063 1089.515625 L 5135.246094 1058.101563 L 5130.585938 1025.972656 L 5124.171875 993.84375 L 5114.84375 962.429688 L 5103.769531 931.015625 L 5090.941406 901.03125 L 5075.785156 870.328125 L 5058.296875 841.058594 L 5038.476563 811.785156 L 5016.324219 783.226563 L 4993.589844 756.097656 L 4968.523438 729.679688 L 4941.707031 704.691406 L 4913.140625 678.988281 L 4881.664063 656.140625 L 4850.183594 634.007813 L 4815.789063 613.304688 L 4781.394531 593.3125 L 4745.25 575.464844 L 4707.941406 557.613281 L 4668.886719 541.90625 L 4629.242188 527.628906 L 4588.4375 514.777344 L 4546.464844 504.066406 L 4505.074219 494.785156 L 4461.351563 486.21875 L 4418.214844 479.792969 L 4374.492188 474.792969 L 4330.1875 472.652344 L 4286.46875 470.511719 L 4242.746094 470.511719 L 4198.441406 472.652344 L 4154.136719 475.507813 L 4111 480.507813 L 4067.277344 486.933594 L 4024.136719 494.785156 L 3981.582031 504.78125 L 4265.480469 1105.222656 "/>
<path style="fill:none;stroke-width:0.05;stroke-linecap:butt;stroke-linejoin:miter;stroke:rgb(42.352942%,56.078434%,57.647061%);stroke-opacity:1;stroke-miterlimit:10;" d="M 139.418008 -10.04022 L 143.178164 -15.787681 L 143.877578 -17.2869 L 144.431484 -18.857603 L 144.868594 -20.428306 L 145.218398 -22.034752 L 145.451602 -23.641197 L 145.539102 -25.2119 L 145.568203 -26.889634 L 145.480703 -28.460338 L 145.276797 -30.066783 L 144.956094 -31.673228 L 144.489688 -33.243931 L 143.935977 -34.814634 L 143.323867 -36.349791 L 142.566055 -37.813267 L 141.662344 -39.348423 L 140.671328 -40.8119 L 139.651211 -42.23983 L 138.456094 -43.59647 L 137.202773 -44.917173 L 135.861953 -46.20233 L 134.433828 -47.416197 L 132.918008 -48.558384 L 131.314883 -49.700767 L 129.653555 -50.771666 L 127.875625 -51.735533 L 126.068398 -52.663658 L 124.202969 -53.520494 L 122.250039 -54.234361 L 120.268008 -54.984166 L 118.256875 -55.662291 L 116.187344 -56.23358 L 114.059609 -56.697642 L 111.960977 -57.125963 L 109.803945 -57.447252 L 107.617813 -57.661509 L 105.402773 -57.804283 L 103.187539 -57.911314 L 100.943008 -57.911314 L 98.75707 -57.804283 L 96.541836 -57.661509 L 94.355703 -57.447252 L 92.198867 -57.125963 L 90.070938 -56.733384 L 87.943203 -56.23358 " transform="matrix(20,0,0,20,2225.05,1628.738)"/>
<path style=" stroke:none;fill-rule:evenodd;fill:rgb(71.372551%,78.039217%,78.823531%);fill-opacity:1;" d="M 4382.65625 1944.128906 L 5310.132813 2205.4375 L 5328.789063 2171.167969 L 5343.945313 2137.613281 L 5357.9375 2101.914063 L 5369.011719 2066.214844 L 5376.589844 2030.519531 L 5381.835938 1994.820313 L 5383.585938 1957.695313 L 5383.585938 1921.28125 L 5380.089844 1884.871094 L 5374.839844 1849.171875 L 5365.515625 1812.757813 L 5354.4375 1777.777344 L 5339.863281 1742.792969 L 5324.125 1707.808594 L 5304.304688 1674.25 L 5282.152344 1642.121094 L 5258.25 1609.28125 L 5230.851563 1577.152344 L 5201.703125 1547.164063 L 4382.65625 1944.128906 "/>
<path style="fill:none;stroke-width:0.05;stroke-linecap:butt;stroke-linejoin:miter;stroke:rgb(42.352942%,56.078434%,57.647061%);stroke-opacity:1;stroke-miterlimit:10;" d="M 148.366445 34.760952 L 154.195938 28.906459 L 155.070352 27.22853 L 155.944766 25.443764 L 156.615078 23.694545 L 157.168984 21.873842 L 157.547891 20.089077 L 157.839297 18.304116 L 157.955898 16.447866 L 157.926797 14.627162 L 157.751992 12.770912 L 157.431289 10.985952 L 157.023281 9.200991 L 156.469375 7.416225 L 155.740664 5.631264 L 154.924648 3.882045 L 153.904336 2.168569 L 152.826016 0.562123 L 151.543398 -1.080064 L 150.231875 -2.650767 L 148.745352 -4.149986 L 139.418008 -10.04022 " transform="matrix(20,0,0,20,2225.05,1628.738)"/>
<path style=" stroke:none;fill-rule:evenodd;fill:rgb(71.372551%,78.039217%,78.823531%);fill-opacity:1;" d="M 4343.597656 2633.816406 L 4050.953125 3625.507813 L 4094.09375 3641.214844 L 4137.8125 3655.496094 L 4181.535156 3666.207031 L 4227.007813 3674.773438 L 4271.308594 3681.199219 L 4315.613281 3684.054688 L 4361.667969 3684.054688 L 4406.554688 3681.199219 L 4450.859375 3676.914063 L 4495.746094 3668.347656 L 4539.46875 3657.636719 L 4583.191406 3645.5 L 4626.328125 3629.792969 L 4668.886719 3610.515625 L 4709.691406 3589.8125 L 4750.5 3566.25 L 4790.140625 3540.546875 L 4828.613281 3511.988281 L 4865.921875 3482.71875 L 4901.484375 3449.160156 L 4935.292969 3414.175781 L 4967.941406 3377.765625 L 4999.417969 3338.496094 L 5029.148438 3297.800781 L 5055.964844 3255.675781 L 5081.617188 3211.410156 L 5106.101563 3166.433594 L 5127.667969 3119.308594 L 5146.90625 3072.1875 L 5164.976563 3022.925781 L 5180.136719 2972.234375 L 5194.125 2920.828125 L 5205.203125 2869.421875 L 5214.527344 2816.589844 L 5220.359375 2764.472656 L 5225.605469 2710.925781 L 5226.769531 2657.375 L 5226.769531 2603.828125 L 5224.441406 2550.28125 L 5219.777344 2496.734375 L 5212.78125 2443.902344 L 5204.035156 2391.78125 L 5192.378906 2340.378906 L 4343.597656 2633.816406 "/>
<path style="fill:none;stroke-width:0.05;stroke-linecap:butt;stroke-linejoin:miter;stroke:rgb(42.352942%,56.078434%,57.647061%);stroke-opacity:1;stroke-miterlimit:10;" d="M 91.411758 99.874233 L 93.597891 100.731069 L 95.754727 101.409194 L 97.969961 101.980483 L 100.185195 102.337514 L 102.458828 102.623061 L 104.674063 102.765834 L 106.918398 102.837123 L 109.162734 102.623061 L 111.436172 102.408803 L 113.651406 101.980483 L 115.837539 101.444936 L 118.023672 100.766811 L 120.180508 99.981264 L 122.279141 99.053139 L 124.377773 97.982241 L 126.389102 96.839858 L 128.341836 95.590444 L 130.236563 94.162514 L 132.101992 92.591811 L 133.879922 90.949819 L 135.570547 89.164858 L 137.202773 87.344155 L 138.776797 85.452163 L 140.234219 83.381655 L 141.633242 81.239858 L 142.857461 79.098061 L 144.08168 76.777553 L 145.160195 74.421498 L 146.121914 72.065444 L 146.996328 69.602358 L 147.783437 67.032045 L 148.482852 64.497475 L 149.007656 61.89142 L 149.473867 59.285561 L 149.823672 56.679506 L 150.027773 54.002162 L 150.085977 51.324819 L 150.085977 48.647475 L 149.940273 45.970131 L 149.736367 43.292788 L 149.357461 40.651186 L 148.861953 38.045131 L 148.366445 35.474819 " transform="matrix(20,0,0,20,2225.05,1628.738)"/>
<path style=" stroke:none;fill-rule:evenodd;fill:rgb(71.372551%,78.039217%,78.823531%);fill-opacity:1;" d="M 636.011719 2070.5 L 591.707031 1397.234375 L 559.0625 1400.804688 L 528.164063 1405.085938 L 495.519531 1412.226563 L 464.039063 1420.792969 L 433.144531 1430.789063 L 402.832031 1443.640625 L 373.101563 1455.777344 L 343.953125 1472.199219 L 314.804688 1487.90625 L 287.40625 1505.757813 L 260.589844 1525.746094 L 234.941406 1546.453125 L 209.875 1568.585938 L 187.136719 1592.859375 L 164.402344 1617.132813 L 143.417969 1642.835938 L 123.597656 1669.96875 L 105.523438 1698.527344 L 87.453125 1727.085938 L 71.714844 1757.785156 L 58.304688 1789.199219 L 45.480469 1820.613281 L 33.238281 1852.027344 L 23.910156 1884.871094 L 16.332031 1918.425781 L 9.335938 1951.980469 L 4.089844 1986.253906 L 1.757813 2021.238281 L 0.0117188 2054.792969 L 0.0117188 2089.0625 L 1.757813 2122.621094 L 5.257813 2157.601563 L 10.503906 2191.160156 L 16.332031 2224.714844 L 25.078125 2258.273438 L 34.402344 2291.113281 L 46.0625 2323.242188 L 58.886719 2354.65625 L 73.460938 2385.355469 L 89.203125 2416.058594 L 107.273438 2443.902344 L 125.34375 2472.460938 L 145.75 2499.589844 L 167.316406 2525.292969 L 189.46875 2550.28125 L 213.371094 2573.128906 L 238.4375 2595.261719 L 264.089844 2616.679688 L 291.488281 2635.957031 L 318.300781 2653.808594 L 347.449219 2670.226563 L 636.011719 2070.5 "/>
<path style="fill:none;stroke-width:0.05;stroke-linecap:butt;stroke-linejoin:miter;stroke:rgb(42.352942%,56.078434%,57.647061%);stroke-opacity:1;stroke-miterlimit:10;" d="M -81.667148 -11.575181 L -83.211875 -11.396666 L -84.815 -11.182603 L -86.389023 -10.825572 L -87.904648 -10.432798 L -89.44957 -9.933189 L -90.965195 -9.397642 L -92.422617 -8.719322 L -93.850742 -8.005455 L -95.279062 -7.220103 L -96.590781 -6.327525 L -97.960703 -5.363658 L -99.214023 -4.364244 L -100.438242 -3.293345 L -101.604063 -2.11522 L -102.770078 -0.901548 L -103.790195 0.312319 L -104.810312 1.668764 L -105.714023 3.025405 L -106.588438 4.453139 L -107.34625 5.916811 L -108.074961 7.416225 L -108.774375 8.915444 L -109.357383 10.486147 L -109.881992 12.092592 L -110.319297 13.73478 L -110.639805 15.376772 L -110.960508 17.054702 L -111.135313 18.732436 L -111.251914 20.410366 L -111.251914 23.765834 L -111.077109 25.443764 L -110.902305 27.121498 L -110.639805 28.799428 L -110.260898 30.44142 L -109.881992 32.047866 L -109.357383 33.618569 L -108.716172 35.260756 L -108.074961 36.795717 L -107.34625 38.259389 L -106.530039 39.722866 L -105.684727 41.150795 L -104.781211 42.507436 L -103.790195 43.828334 L -102.71168 45.077748 L -101.574961 46.29142 L -100.409141 47.433803 L -99.155625 48.504702 L -97.931602 49.539858 L -96.590781 50.468178 L -95.220859 51.324819 L -93.821641 52.145913 " transform="matrix(20,0,0,20,2225.05,1628.738)"/>
<path style=" stroke:none;fill-rule:evenodd;fill:rgb(71.372551%,78.039217%,78.823531%);fill-opacity:1;" d="M 2997.558594 3151.4375 L 1670.753906 3229.261719 L 1679.5 3268.527344 L 1690.574219 3308.511719 L 1705.730469 3347.0625 L 1724.96875 3384.902344 L 1745.371094 3421.316406 L 1770.441406 3458.441406 L 1797.839844 3494.140625 L 1828.734375 3529.839844 L 1863.128906 3563.394531 L 1899.855469 3596.949219 L 1938.332031 3628.363281 L 1980.886719 3659.066406 L 2025.191406 3688.339844 L 2072.410156 3716.894531 L 2121.960938 3742.597656 L 2173.261719 3768.300781 L 2282.855469 3813.996094 L 2340.570313 3833.984375 L 2399.445313 3853.261719 L 2523.03125 3884.675781 L 2585.410156 3897.527344 L 2650.699219 3908.953125 L 2715.992188 3918.234375 L 2781.863281 3925.375 L 2847.15625 3931.085938 L 2914.195313 3933.941406 L 2981.816406 3936.082031 L 3048.273438 3936.082031 L 3115.898438 3933.226563 L 3182.351563 3928.941406 L 3248.226563 3922.515625 L 3313.519531 3913.234375 L 3378.808594 3903.242188 L 3441.769531 3891.101563 L 3504.726563 3876.109375 L 3565.9375 3861.832031 L 3626.5625 3843.980469 L 3684.859375 3823.992188 L 3740.824219 3802.570313 L 3795.621094 3779.726563 L 3848.667969 3754.738281 L 3899.386719 3729.035156 L 3947.769531 3701.902344 L 3992.660156 3673.34375 L 4036.378906 3643.359375 L 4076.605469 3611.945313 L 4115.078125 3579.101563 L 4150.640625 3545.546875 L 4182.117188 3511.988281 L 4211.265625 3476.292969 L 4238.082031 3439.164063 L 4260.816406 3402.753906 L 2997.558594 3151.4375 "/>
<path style="fill:none;stroke-width:0.05;stroke-linecap:butt;stroke-linejoin:miter;stroke:rgb(42.352942%,56.078434%,57.647061%);stroke-opacity:1;stroke-miterlimit:10;" d="M -27.656406 80.097475 L -27.2775 82.025209 L -26.694687 83.988686 L -25.965977 85.916225 L -25.004062 87.808217 L -23.925547 89.700209 L -22.73043 91.48517 L -21.331406 93.270131 L -19.815781 95.055092 L -18.096055 96.732827 L -16.259727 98.410561 L -14.335898 99.981264 L -12.208164 101.51642 L -9.934727 102.980092 L -7.631992 104.407827 L -5.154453 105.692983 L -2.589414 106.978139 L 0.15043 108.120522 L 2.890273 109.227162 L 5.776016 110.262319 L 8.719766 111.226186 L 11.751211 112.011538 L 14.840859 112.796889 L 17.988711 113.439467 L 21.253359 114.010756 L 24.488711 114.474819 L 27.782461 114.796108 L 31.076016 115.117397 L 34.398867 115.26017 L 37.751016 115.367202 L 41.102969 115.331459 L 44.42582 115.224428 L 47.748672 114.938881 L 51.100625 114.688881 L 54.365078 114.224819 L 57.571328 113.689467 L 60.777578 113.118178 L 63.896328 112.440053 L 66.956875 111.654702 L 69.959023 110.762123 L 72.844766 109.762709 L 75.701211 108.691616 L 78.441055 107.584975 L 81.064297 106.407045 L 83.600234 105.086147 L 85.990273 103.729702 L 88.322109 102.301772 L 90.479141 100.731069 L 92.519375 99.195912 L 94.443203 97.55392 L 96.16293 95.947475 L 97.795156 94.162514 L 99.252578 92.413295 L 100.535 90.592788 L 101.730117 88.736537 " transform="matrix(20,0,0,20,2225.05,1628.738)"/>
</g>
</svg>
