<?xml version="1.0" encoding="UTF-8" standalone="no"?>
<svg
   xmlns:dc="http://purl.org/dc/elements/1.1/"
   xmlns:cc="http://creativecommons.org/ns#"
   xmlns:rdf="http://www.w3.org/1999/02/22-rdf-syntax-ns#"
   xmlns:svg="http://www.w3.org/2000/svg"
   xmlns="http://www.w3.org/2000/svg"
   xmlns:sodipodi="http://sodipodi.sourceforge.net/DTD/sodipodi-0.dtd"
   xmlns:inkscape="http://www.inkscape.org/namespaces/inkscape"
   width="2692.5781pt"
   height="1968.5352pt"
   viewBox="0 0 2692.5781 1968.5352"
   version="1.1"
   id="svg2"
   inkscape:version="0.91 r13725"
   sodipodi:docname="internet-cloud-two-connected-clouds-in-one-cloud-connected-to-others-as-one-cloud-with-nothing-in-it.svg">
  <metadata
     id="metadata61">
    <rdf:RDF>
      <cc:Work
         rdf:about="">
        <dc:format>image/svg+xml</dc:format>
        <dc:type
           rdf:resource="http://purl.org/dc/dcmitype/StillImage" />
        <dc:title></dc:title>
      </cc:Work>
    </rdf:RDF>
  </metadata>
  <defs
     id="defs59" />
  <sodipodi:namedview
     pagecolor="#ffffff"
     bordercolor="#666666"
     borderopacity="1"
     objecttolerance="10"
     gridtolerance="10"
     guidetolerance="10"
     inkscape:pageopacity="0"
     inkscape:pageshadow="2"
     inkscape:window-width="741"
     inkscape:window-height="480"
     id="namedview57"
     showgrid="false"
     fit-margin-top="0"
     fit-margin-left="0"
     fit-margin-right="0"
     fit-margin-bottom="0"
     inkscape:zoom="0.045170877"
     inkscape:cx="-1250.557"
     inkscape:cy="1230.3931"
     inkscape:window-x="0"
     inkscape:window-y="0"
     inkscape:window-maximized="0"
     inkscape:current-layer="svg2" />
  <g
     id="surface2254"
     transform="matrix(0.5,0,0,0.5,0.2441,0.24414)">
    <rect
       x="0"
       y="0"
       width="5384"
       height="3936"
       style="fill:#ffffff;fill-opacity:1;stroke:none"
       id="rect5" />
    <path
       style="fill:#b5c7c7;fill-opacity:1;fill-rule:evenodd;stroke:none"
       d="m 4174.5391,821.78125 -1.1641,-40.69531 -4.082,-40.69922 -7.5782,-39.98047 -10.4921,-39.98047 -13.9922,-40.69531 -15.7383,-39.26953 -19.8203,-38.55469 -22.1524,-37.83984 -23.9023,-37.83985 -27.9805,-35.69922 -29.7304,-35.69531 -32.6446,-33.55859 -35.5625,-33.55469 -37.3086,-31.41406 -39.6406,-30.69922 -42.5547,-28.5586 -43.7226,-27.84765 -45.4688,-25.69922 -47.8047,-24.27734 -49.5508,-22.13282 -51.3007,-21.41796 -53.0469,-17.847661 -53.0508,-17.851563 -55.3789,-14.992187 -56.5469,-13.566406 -56.5469,-11.421875 -57.7109,-9.28125 -58.2969,-6.425782 -58.8789,-5.710937 -59.4609,-2.855469 -59.4609,-1.429687 -58.879,1.429687 -60.0429,2.855469 -58.2969,5.710937 -58.293,6.425782 -58.2968,9.28125 -56.5469,11.421875 -56.5469,13.566406 -54.7969,14.992187 -54.2148,17.851563 -51.8828,17.847661 -51.3008,21.41796 -48.9648,22.13282 -48.3868,24.27734 -45.4687,25.69922 -44.3047,27.84765 -42.5586,28.5586 -39.6406,30.69922 -37.3086,31.41406 -35.5586,33.55469 -32.6445,33.55859 -29.7305,35.69531 -27.3984,35.69922 -25.0704,37.83985 -20.9843,37.83984 -19.8203,38.55469 -16.3243,39.26953 -13.9882,40.69531 -9.3282,39.98047 -7.5781,39.98047 -5.2461,40.69922 -0.5859,40.69531 0.5859,41.41016 5.2461,40.69531 7.5781,40.69531 9.3282,39.98047 13.9882,39.9844 16.3243,39.2656 19.8203,38.5547 20.9843,38.5547 25.0704,37.125 27.3984,35.6992 29.7305,35.6992 32.6445,34.2695 35.5586,32.8399 37.3086,31.4141 39.6406,30.7031 42.5586,29.2695 44.3047,26.418 45.4687,27.1328 48.3868,24.2734 48.9648,22.1328 51.3008,19.9922 51.8828,19.2735 54.2148,17.1367 54.7969,14.9922 56.5469,13.5664 56.5469,11.4219 58.2968,8.5703 58.293,7.1367 58.2969,6.4258 60.0429,2.1445 58.879,0.7109 59.4609,-0.7109 59.4609,-2.1445 58.8789,-6.4258 58.2969,-7.1367 57.7109,-8.5703 56.5469,-11.4219 56.5469,-13.5664 55.3789,-14.9922 53.0508,-17.1367 53.0469,-19.2735 51.3007,-19.9922 49.5508,-22.1328 47.8047,-24.2734 45.4688,-27.1328 43.7226,-26.418 42.5547,-29.2695 39.6406,-30.7031 37.3086,-31.4141 35.5625,-32.8399 32.6446,-34.2695 29.7304,-35.6992 27.9805,-35.6992 23.9023,-37.125 22.1524,-38.5547 19.8203,-38.5547 15.7383,-39.2656 13.9922,-39.9844 10.4921,-39.98047 7.5782,-40.69531 4.082,-40.69531 1.1641,-41.41016"
       id="path7"
       inkscape:connector-curvature="0" />
    <path
       style="fill:#b5c7c7;fill-opacity:1;fill-rule:evenodd;stroke:none"
       d="m 2339.9844,1245.875 -1.1641,-40.6953 -4.082,-40.6992 -4.6641,-39.9805 -8.1601,-40.6953 -10.4922,-39.9805 -12.8242,-39.2695 -15.1602,-38.5547 -16.3203,-37.83984 -18.6563,-37.83985 -20.9843,-35.69922 -22.7344,-35.69531 -25.0703,-33.55859 -27.9805,-33.55469 -28.5664,-31.41406 -30.3125,-30.69922 -32.6445,-28.5586 -32.6446,-27.84765 -36.1445,-25.70313 -36.1445,-24.27343 -38.4727,-21.41797 -38.4765,-22.13282 -40.2227,-19.27734 -41.9727,-16.42187 -41.9726,-14.99219 -43.1367,-13.56641 -43.7227,-11.42187 -44.3047,-9.28125 -44.8867,-6.42578 -44.3047,-5.71094 -45.4726,-3.57031 -45.4688,-0.71485 -45.4726,0.71485 -45.4688,3.57031 -45.4687,5.71094 -44.3047,6.42578 -44.8867,9.28125 -43.7227,11.42187 -42.5547,13.56641 -41.9726,14.99219 -41.3907,16.42187 -40.2226,19.27734 -39.64456,22.13282 -37.3086,21.41797 -37.30859,24.27343 -34.97656,25.70313 -33.22657,27.84765 -32.64843,28.5586 -30.3125,30.69922 -29.14844,31.41406 -27.39844,33.55469 -24.48437,33.55859 -23.31641,35.69531 -20.40234,35.69922 -19.23828,37.83985 L 601.03516,966 l -14.57422,38.5547 -12.82422,39.2695 -10.49219,39.9805 -7.57812,40.6953 -5.83204,39.9805 -3.49609,40.6992 -1.16797,40.6953 1.16797,41.4102 3.49609,40.6953 5.83204,40.6953 7.57812,39.9805 10.49219,39.9843 12.82422,39.2657 14.57422,38.5546 16.90625,37.8399 19.23828,37.8398 20.40234,35.6992 23.31641,35.6954 24.48437,33.5586 27.39844,33.5546 29.14844,31.4141 30.3125,30.7031 32.64843,28.5586 33.22657,27.1289 34.97656,25.7032 37.30859,25.7031 37.3086,22.1328 39.64456,19.9883 40.2226,19.9922 41.3907,16.4218 41.9726,14.9922 42.5547,13.5664 43.7227,10.711 44.8867,9.2812 44.3047,7.1367 45.4687,6.4258 45.4688,2.1445 45.4726,0.711 45.4688,-0.711 45.4726,-2.1445 44.3047,-6.4258 44.8867,-7.1367 44.3047,-9.2812 43.7227,-10.711 43.1367,-13.5664 41.9726,-14.9922 41.9727,-16.4218 40.2227,-19.9922 38.4765,-19.9883 38.4727,-22.1328 72.289,-51.4063 32.6446,-27.1289 32.6445,-28.5586 30.3125,-30.7031 28.5664,-31.4141 27.9805,-33.5546 25.0703,-33.5586 22.7344,-35.6954 20.9843,-35.6992 18.6563,-37.8398 16.3203,-37.8399 15.1602,-38.5546 12.8242,-39.2657 10.4922,-39.9843 8.1601,-39.9805 4.6641,-40.6953 4.082,-40.6953 1.1641,-41.4102"
       id="path9"
       inkscape:connector-curvature="0" />
    <path
       style="fill:#b5c7c7;fill-opacity:1;fill-rule:evenodd;stroke:none"
       d="m 1208.4727,2070.5 -0.5821,-33.5547 -1.75,-33.5586 -4.082,-33.5547 -5.2461,-32.8437 -7.5781,-31.4141 -8.7422,-32.8398 -9.3281,-32.1289 -11.0782,-30.7032 -12.8242,-30.6992 -14.5742,-29.2734 -15.7383,-27.8438 -16.9062,-28.5586 -18.0703,-27.1289 -19.2383,-26.4179 -20.9883,-24.2735 -21.5664,-22.8476 -22.15236,-23.5625 -23.32031,-20.7031 -25.06641,-19.9922 -25.64843,-18.5625 -26.23438,-16.4219 -27.39844,-15.707 -27.39843,-13.5625 -28.56641,-12.1407 -29.14453,-11.4218 -29.14844,-8.5664 -29.73047,-8.5704 -30.89843,-4.9961 -30.3125,-4.2851 -29.73047,-2.1406 -30.89844,-1.4258 -30.89453,1.4258 -30.89844,2.1406 -30.3125,4.2851 -29.73047,4.9961 -30.3125,8.5704 -29.73047,8.5664 -28.5664,11.4218 -27.98047,12.1407 -28.56641,13.5625 -27.39844,15.707 -26.23046,16.4219 -25.65235,18.5625 -24.48437,19.9922 -23.89844,20.7031 -22.15234,23.5625 -21.57032,22.8476 -20.40234,24.2735 -19.82031,26.4179 -18.07422,27.1289 -16.906251,28.5586 -15.738281,27.8438 -13.40625,29.2734 -12.828125,30.6992 -11.074219,30.7032 -10.492188,32.1289 -8.746093,32.8398 -6.410157,31.4141 -5.25,32.8437 -4.660156,33.5547 -2.3320312,33.5586 0,65.6836 2.3320312,33.5547 4.660156,32.8437 5.25,32.8399 6.410157,33.5586 8.746093,31.414 10.492188,31.4141 11.074219,31.4141 12.828125,30.6992 13.40625,29.2734 15.738281,28.5586 16.906251,27.8438 18.07422,27.1328 19.82031,25.7031 20.40234,24.2734 21.57032,23.5586 22.15234,23.5625 23.89844,19.9922 24.48437,19.9883 25.65235,18.5625 26.23046,17.1367 27.39844,15.7071 28.56641,13.5664 27.98047,12.1367 28.5664,10.7109 29.73047,9.2813 30.3125,7.8515 29.73047,6.4258 30.3125,3.5703 30.89844,2.1407 30.89453,1.4296 30.89844,-1.4296 29.73047,-2.1407 30.3125,-3.5703 30.89843,-6.4258 29.73047,-7.8515 29.14844,-9.2813 29.14453,-10.7109 28.56641,-12.1367 27.39843,-13.5664 27.39844,-15.7071 26.23438,-17.1367 25.64843,-18.5625 25.06641,-19.9883 23.32031,-19.9922 22.15236,-23.5625 21.5664,-23.5586 20.9883,-24.2734 19.2383,-25.7031 18.0703,-27.1328 16.9062,-27.8438 15.7383,-28.5586 14.5742,-29.2734 12.8242,-30.6992 11.0782,-31.4141 9.3281,-31.4141 8.7422,-31.414 7.5781,-33.5586 5.2461,-32.8399 4.082,-32.8437 1.75,-33.5547 0.5821,-32.1289"
       id="path11"
       inkscape:connector-curvature="0" />
    <path
       style="fill:#b5c7c7;fill-opacity:1;fill-rule:evenodd;stroke:none"
       d="m 2184.3359,2705.2109 -0.582,-36.4101 -4.082,-35.6992 -6.4102,-36.4102 -7.5781,-35.6992 -10.4961,-34.9844 -12.2422,-34.9844 -15.7383,-34.2695 -16.3242,-33.5586 -19.8203,-31.414 -20.9844,-32.8399 -23.9023,-31.4141 -25.0664,-29.2734 -26.8164,-29.2734 -29.1485,-29.2735 -30.8945,-26.414 -32.6445,-25.7032 -34.3946,-23.5625 -36.1445,-23.5585 -36.7266,-20.7071 -38.4726,-20.7031 -40.2266,-17.8477 -40.8047,-17.1367 -41.9726,-14.9922 -42.5547,-13.5664 -43.7227,-11.4218 -44.8867,-9.2813 -44.3047,-8.5703 -45.4726,-7.1367 -45.4688,-4.2852 -46.0547,-2.8555 -46.6367,-0.7148 -46.0508,0.7148 -45.4726,2.8555 -46.6367,4.2852 -44.8868,7.1367 -45.4687,8.5703 -43.7227,9.2813 -43.72262,11.4218 -43.13672,13.5664 -41.97265,14.9922 -40.22266,17.1367 -40.22656,17.8477 -38.47266,20.7031 -37.30859,20.7071 -35.5625,23.5585 -34.39453,23.5625 -32.64454,25.7032 -30.89453,26.414 -29.14843,29.2735 -27.39844,29.2734 -25.06641,29.2734 -23.90234,31.4141 -21.57031,32.8399 -18.65235,31.414 -16.90625,33.5586 -15.74219,34.2695 -12.82421,34.9844 -9.32813,34.9844 -8.74219,35.6992 -5.82812,36.4102 -3.5,35.6992 -1.16406,36.4101 1.16406,35.6993 3.5,36.414 5.82812,35.6953 8.74219,35.6993 9.32813,34.9843 12.82421,34.9844 15.74219,34.9844 16.90625,33.5547 18.65235,32.1289 21.57031,31.414 23.90234,31.4141 25.06641,29.9883 27.39844,29.9844 29.14843,28.5585 30.89453,26.418 32.64454,24.9883 34.39453,24.2734 35.5625,22.8477 37.30859,21.418 38.47266,20.707 40.22656,17.8476 40.22266,17.1368 41.97265,14.2773 43.13672,13.5664 43.72262,11.4219 43.7227,9.9961 45.4687,9.2812 44.8868,6.4258 46.6367,4.2852 45.4726,2.8554 92.6875,0 46.0547,-2.8554 45.4688,-4.2852 45.4726,-6.4258 44.3047,-9.2812 44.8867,-9.9961 43.7227,-11.4219 42.5547,-13.5664 41.9726,-14.2773 40.8047,-17.1368 40.2266,-17.8476 38.4726,-20.707 36.7266,-21.418 36.1445,-22.8477 34.3946,-24.2734 32.6445,-24.9883 30.8945,-26.418 29.1485,-28.5585 26.8164,-29.9844 25.0664,-29.9883 23.9023,-31.4141 20.9844,-31.414 19.8203,-32.1289 16.3242,-33.5547 15.7383,-34.9844 12.2422,-34.9844 10.4961,-34.9843 7.5781,-35.6993 6.4102,-35.6953 4.082,-36.414 0.582,-35.6993"
       id="path13"
       inkscape:connector-curvature="0" />
    <path
       style="fill:#b5c7c7;fill-opacity:1;fill-rule:evenodd;stroke:none"
       d="m 4369.8281,3074.332 -2.332,-43.5547 -4.6602,-43.5507 -9.3281,-42.125 -12.2422,-42.1211 -15.1562,-42.125 -18.6563,-40.6953 -22.1523,-39.9805 -25.6485,-40.6992 -29.1484,-39.2657 -31.4805,-37.8398 -35.5586,-36.4141 -37.3086,-35.6953 -40.8085,-34.9843 -43.1368,-33.5586 -47.2187,-32.1289 -47.8047,-29.9844 -51.3008,-29.2735 -53.6289,-27.1289 -54.7969,-24.9882 -58.2968,-23.5625 -58.8789,-22.1329 -61.211,-19.2773 -62.375,-18.5625 -64.707,-15.707 -64.707,-14.2774 -66.4571,-11.4258 -66.457,-9.9961 -68.7891,-7.1367 -67.039,-5 -69.3711,-4.2812 -137.5781,0 -68.7891,4.2812 -68.207,5 -67.6211,7.1367 -67.6211,9.9961 -65.875,11.4258 -65.2891,14.2774 -63.543,15.707 -63.5429,18.5625 -60.043,19.2773 -60.0469,22.1329 -57.1289,23.5625 -55.3789,24.9882 -53.0508,27.1289 -51.2968,29.2735 -48.9688,29.9844 -46.0547,32.1289 -43.1367,33.5586 -41.3906,34.9843 -37.8906,35.6953 -34.9805,36.4141 -30.8945,37.8398 -29.1485,39.2657 -25.6484,40.6992 -22.1524,39.9805 -19.2382,40.6953 -15.1563,42.125 -12.8242,42.1211 -8.7461,42.125 -5.2461,43.5507 -1.75,43.5547 1.75,41.4102 5.2461,43.5508 8.7461,42.1211 12.8242,42.8398 15.1563,42.125 19.2382,40.6953 22.1524,39.9805 25.6484,40.6953 29.1485,39.2695 30.8945,37.8399 34.9805,36.4101 37.8906,37.1289 41.3906,33.5547 43.1367,33.5547 46.0547,31.4141 48.9688,31.4179 51.2968,28.5547 53.0508,27.1328 55.3789,24.9883 57.1289,24.2735 60.0469,20.707 60.043,19.9883 63.5429,17.8515 63.543,15.7071 65.2891,14.9922 65.875,10.7109 67.6211,9.9961 67.6211,7.8516 68.207,5 68.7891,4.2812 137.5781,0 69.3711,-4.2812 67.039,-5 68.7891,-7.8516 66.457,-9.9961 66.4571,-10.7109 64.707,-14.9922 64.707,-15.7071 62.375,-17.8515 61.211,-19.9883 58.8789,-20.707 58.2968,-24.2735 54.7969,-24.9883 53.6289,-27.1328 51.3008,-28.5547 47.8047,-31.4179 47.2187,-31.4141 43.1368,-33.5547 40.8085,-33.5547 37.3086,-37.1289 35.5586,-36.4101 31.4805,-37.8399 29.1484,-39.2695 25.6485,-40.6953 22.1523,-39.9805 18.6563,-40.6953 15.1562,-42.125 12.2422,-42.8398 9.3281,-42.1211 4.6602,-43.5508 2.332,-41.4102"
       id="path15"
       inkscape:connector-curvature="0" />
    <path
       style="fill:#b5c7c7;fill-opacity:1;fill-rule:evenodd;stroke:none"
       d="m 5124.1719,1120.2148 -0.5821,-31.414 -3.5,-32.8399 -6.4101,-32.1289 -6.9961,-31.41403 -10.4922,-30.69922 -11.6602,-31.41797 -14.5742,-30.69922 -16.9062,-29.98437 -18.0703,-28.5586 -19.8203,-29.27343 -22.7344,-27.84375 -24.4844,-27.13282 -25.6523,-24.98828 -28.5625,-25.70312 -29.1485,-23.5586 -32.0625,-22.13281 -32.6445,-22.84766 -33.8125,-19.99218 -36.1445,-18.5625 -36.7266,-17.84766 -37.3086,-16.42187 -39.6406,-14.99219 -40.2227,-13.56641 -40.8086,-12.13672 -41.9726,-10.71093 -41.9727,-7.13672 -43.1367,-8.57032 -43.1367,-5.71093 -44.3047,-3.57032 -43.7227,-2.14062 -44.3047,-1.42969 -44.8867,1.42969 -43.7226,2.14062 -44.3047,3.57032 -43.1367,5.71093 -42.5586,8.57032 -42.5547,7.13672 -41.3906,10.71093 -41.3868,12.13672 -40.2265,13.56641 -39.6406,14.99219 -37.8907,16.42187 -36.1445,17.84766 -36.1406,18.5625 -33.8125,19.99218 -32.6446,22.84766 -31.4804,22.13281 -29.7305,23.5586 -28.5664,25.70312 -25.6484,24.98828 -23.9024,27.13282 -23.3164,27.84375 -19.8203,29.27343 -18.0703,28.5586 -16.9063,29.98437 -14.5742,30.69922 -11.6601,31.41797 -9.9102,30.69922 -8.1601,31.41403 -5.2461,32.1289 -2.918,32.8399 -1.7461,31.414 1.7461,32.129 2.918,32.1289 5.2461,31.414 8.1601,32.1289 9.9102,31.4141 11.6601,30.6992 14.5742,30.7031 16.9063,29.9844 18.0703,29.9883 19.8203,27.8437 23.3164,27.1289 23.9024,27.8477 25.6484,25.6992 28.5664,24.2774 29.7305,24.2734 31.4804,22.8477 32.6446,21.4179 33.8125,19.9922 36.1406,19.9883 36.1445,17.8516 37.8907,15.707 39.6406,15.707 40.2265,12.8516 41.3868,11.4219 41.3906,11.4257 42.5547,8.5664 42.5586,7.1407 43.1367,6.4258 44.3047,2.8554 43.7226,3.5703 89.1914,0 43.7227,-3.5703 44.3047,-2.8554 43.1367,-6.4258 43.1367,-7.1407 41.9727,-8.5664 41.9726,-11.4257 40.8086,-11.4219 40.2227,-12.8516 39.6406,-15.707 37.3086,-15.707 36.7266,-17.8516 36.1445,-19.9883 33.8125,-19.9922 32.6445,-21.4179 32.0625,-22.8477 29.1485,-24.2734 28.5625,-24.2774 25.6523,-25.6992 24.4844,-27.8477 22.7344,-27.1289 19.8203,-27.8437 18.0703,-29.9883 16.9062,-29.9844 14.5742,-30.7031 11.6602,-30.6992 10.4922,-31.4141 6.9961,-32.1289 6.4101,-31.414 3.5,-32.1289 0.5821,-32.129"
       id="path17"
       inkscape:connector-curvature="0" />
    <path
       style="fill:#b5c7c7;fill-opacity:1;fill-rule:evenodd;stroke:none"
       d="m 5371.3437,1936.2734 -1.75,-32.125 -2.332,-32.1289 -5.8281,-31.414 -7.5781,-31.4141 -10.4922,-32.1289 -11.6602,-29.9883 -13.9922,-31.414 -16.9062,-29.2735 -18.0703,-29.9844 -19.8203,-27.8437 -22.7344,-28.5586 -24.4844,-26.418 -25.0664,-24.9882 -28.5664,-26.418 -29.1484,-22.8438 -30.3125,-23.5625 -32.6446,-21.4179 -34.9765,-19.9922 -34.3946,-19.2774 -36.7265,-17.8476 -37.3086,-16.4219 -39.0586,-14.9922 -39.6406,-12.8515 -40.8086,-12.1368 -41.9727,-10.7109 -41.9726,-8.5664 -42.5547,-7.1406 -43.7188,-6.4258 -43.1406,-2.8555 -43.7227,-2.1406 -43.7187,-1.4297 -44.3047,1.4297 -43.1406,2.1406 -43.7188,2.8555 -42.5586,6.4258 -42.5547,7.1406 -42.5546,8.5664 -41.3907,10.7109 -40.2226,12.1368 -40.2266,12.8515 -39.0547,14.9922 -37.3086,16.4219 -36.7265,17.8476 -35.5625,19.2774 -33.2266,19.9922 -32.6445,21.4179 -32.0625,23.5625 -29.1485,22.8438 -27.3984,26.418 -25.0664,24.9882 -24.4844,26.418 -22.1523,28.5586 -20.9883,27.8437 -18.0703,29.9844 -15.7422,29.2735 -14.5703,31.414 -12.8281,29.9883 -9.3243,32.1289 -7.5781,31.4141 -5.832,31.414 -3.4961,32.1289 -0.5859,32.125 0.5859,32.1289 3.4961,32.8438 5.832,31.4141 7.5781,31.414 9.3243,31.4141 12.8281,30.6992 14.5703,31.4141 15.7422,29.2734 18.0703,28.5586 20.9883,29.2734 22.1523,27.1289 24.4844,27.1329 25.0664,25.7031 27.3984,24.9883 29.1485,24.2734 32.0625,22.1328 32.6445,22.1328 33.2266,19.9922 35.5625,18.5625 36.7265,17.8477 37.3086,16.4218 39.0547,14.9922 40.2266,13.5664 40.2226,12.8516 41.3907,10.7109 42.5546,7.1368 42.5547,8.5703 42.5586,4.9961 43.7188,4.2851 43.1406,2.1406 44.3047,0.7149 43.7187,-0.7149 43.7227,-2.1406 43.1406,-4.2851 43.7188,-4.9961 42.5547,-8.5703 41.9726,-7.1368 41.9727,-10.7109 40.8086,-12.8516 39.6406,-13.5664 39.0586,-14.9922 37.3086,-16.4218 36.7265,-17.8477 34.3946,-18.5625 34.9765,-19.9922 32.6446,-22.1328 30.3125,-22.1328 29.1484,-24.2734 28.5664,-24.9883 25.0664,-25.7031 24.4844,-27.1329 22.7344,-27.1289 19.8203,-29.2734 18.0703,-28.5586 16.9062,-29.2734 13.9922,-31.4141 11.6602,-30.6992 10.4922,-31.4141 7.5781,-31.414 5.8281,-31.4141 2.332,-32.8438 1.75,-32.1289"
       id="path19"
       inkscape:connector-curvature="0" />
    <path
       style="fill:#b5c7c7;fill-opacity:1;fill-rule:evenodd;stroke:none"
       d="m 5202.2891,2610.9688 -1.168,-52.1172 -3.4961,-53.5469 -4.6641,-51.4063 -7.5781,-52.8359 -9.9101,-51.4023 -12.2422,-50.6914 -13.9922,-49.9766 -16.9063,-49.2656 -18.0703,-47.836 -19.2383,-47.1211 -22.1523,-45.6914 -24.4844,-43.5547 -25.6484,-42.8359 -27.9844,-40.6953 -29.1445,-39.2695 -30.3164,-37.8399 -32.6446,-35.6992 -33.2265,-32.125 -35.5625,-31.4141 -36.1407,-28.5586 -37.3085,-27.1328 -37.8946,-24.2734 -39.6406,-22.8477 -40.2227,-19.9922 -41.9726,-17.1328 -41.3906,-13.5664 -43.1368,-12.8515 -42.5586,-9.2813 -42.5546,-6.4258 -43.1368,-4.2851 -43.7226,-0.711 -43.7227,0.711 -43.1367,4.2851 -43.7226,6.4258 -42.5547,9.2813 -41.9727,12.8515 -42.5547,13.5664 -40.8086,17.1328 -40.2226,19.9922 -39.6406,22.8477 -39.0586,24.2734 -37.3086,27.1328 -36.1446,28.5586 -34.3945,31.4141 -34.3945,32.125 -32.0625,35.6992 -30.8946,37.8399 -29.1484,39.2695 -27.3984,40.6953 -26.2344,42.8359 -23.3164,43.5547 -22.1524,45.6914 -20.4023,47.1211 -18.0742,47.836 -15.7383,49.2656 -13.9922,49.9766 -12.2422,50.6914 -9.9101,51.4023 -7.5782,52.8359 -5.8281,51.4063 -3.5,53.5469 -1.164,52.1172 1.164,52.832 3.5,53.5469 5.8281,51.4062 7.5782,52.1211 9.9101,52.832 12.2422,49.9766 13.9922,49.2656 15.7383,49.9766 18.0742,47.1211 20.4023,47.1211 22.1524,46.4062 23.3164,43.5547 26.2344,42.1211 27.3984,41.4102 29.1484,39.2695 30.8946,37.125 32.0625,35.6992 34.3945,33.5547 34.3945,30.6992 36.1446,29.2735 37.3086,26.4179 39.0586,24.9883 39.6406,22.1328 40.2226,19.9922 40.8086,16.418 42.5547,14.9961 41.9727,11.4218 42.5547,9.2813 43.7226,6.4258 43.1367,4.2851 43.7227,2.1407 43.7226,-2.1407 43.1368,-4.2851 42.5546,-6.4258 42.5586,-9.2813 43.1368,-11.4218 41.3906,-14.9961 41.9726,-16.418 40.2227,-19.9922 39.6406,-22.1328 37.8946,-24.9883 37.3085,-26.4179 36.1407,-29.2735 35.5625,-30.6992 33.2265,-33.5547 32.6446,-35.6992 30.3164,-37.125 29.1445,-39.2695 27.9844,-41.4102 25.6484,-42.1211 24.4844,-43.5547 22.1523,-46.4062 19.2383,-47.1211 18.0703,-47.1211 16.9063,-49.9766 13.9922,-49.2656 12.2422,-49.9766 9.9101,-52.832 7.5781,-52.1211 4.6641,-51.4062 3.4961,-53.5469 1.168,-52.832"
       id="path21"
       inkscape:connector-curvature="0" />
    <path
       style="fill:#b5c7c7;fill-opacity:1;fill-rule:evenodd;stroke:none"
       d="m 4460.7695,1983.3984 -2.332,-53.5507 -6.9961,-51.4024 -11.0742,-53.5469 -15.1563,-51.4062 -19.8203,-51.4063 -24.4844,-51.4062 -28.5664,-49.9766 -33.2265,-49.2617 -36.1446,-47.8359 -40.8046,-46.4063 -45.4727,-46.4101 -48.3828,-44.2657 -52.4688,-41.4101 -55.9609,-41.4102 -59.4609,-39.9804 -61.793,-37.125 -65.875,-34.9844 -68.7891,-33.5586 -70.5351,-31.4141 -74.0352,-29.2695 -76.3672,-26.418 -78.1171,-24.9883 -79.8633,-22.1328 -81.6133,-19.2773 -83.9453,-16.42189 -85.1133,-14.99219 -85.6953,-11.42187 -86.8594,-9.28516 -87.4414,-7.85156 -88.0273,-3.57031 -89.1914,-1.42578 -88.0274,1.42578 -88.0234,3.57031 -87.4453,7.85156 -87.4414,9.28516 -85.6954,11.42187 -85.1093,14.99219 -83.3633,16.42189 -81.6133,19.2773 -81.0312,22.1328 -76.9493,24.9883 -76.3672,26.418 -74.6171,29.2695 -71.1211,31.4141 -67.6211,33.5586 -66.4571,34.9844 -62.3789,37.125 -58.2929,39.9804 -56.5469,41.4102 -52.4649,41.4101 -47.8046,44.2657 -45.4688,46.4101 -40.2226,46.4063 -36.7266,47.8359 -33.8125,49.2617 -27.9805,49.9766 -23.9023,51.4062 -20.9883,51.4063 -15.15626,51.4062 -11.07422,53.5469 -6.99609,51.4024 -1.75,53.5507 1.75,52.1172 6.99609,52.8321 11.07422,52.1211 15.15626,52.832 20.9883,51.4062 23.9023,50.6914 27.9805,49.2618 33.8125,49.9804 36.7266,48.5469 40.2226,46.4063 45.4688,44.9804 47.8046,44.2656 52.4649,42.8399 56.5469,40.6953 58.2929,39.2656 62.3789,37.8399 66.4571,35.6992 67.6211,33.5586 71.1211,31.414 74.6171,27.8438 76.3672,27.8437 76.9493,23.5625 81.0312,22.1329 81.6133,19.9882 83.3633,17.1368 85.1093,14.2773 85.6954,12.1406 87.4414,9.2813 87.4453,6.4258 88.0234,4.9961 88.0274,0.7148 89.1914,-0.7148 88.0273,-4.9961 87.4414,-6.4258 86.8594,-9.2813 85.6953,-12.1406 85.1133,-14.2773 83.9453,-17.1368 81.6133,-19.9882 79.8633,-22.1329 78.1171,-23.5625 76.3672,-27.8437 74.0352,-27.8438 70.5351,-31.414 68.7891,-33.5586 65.875,-35.6992 61.793,-37.8399 59.4609,-39.2656 55.9609,-40.6953 52.4688,-42.8399 48.3828,-44.2656 45.4727,-44.9804 40.8046,-46.4063 36.1446,-48.5469 33.2265,-49.9804 28.5664,-49.2618 24.4844,-50.6914 19.8203,-51.4062 15.1563,-52.832 11.0742,-52.1211 6.9961,-52.8321 2.332,-52.1172"
       id="path23"
       inkscape:connector-curvature="0" />
    <path
       style="fill:#b5c7c7;fill-opacity:1;fill-rule:evenodd;stroke:none"
       d="m 3017.3789,814.64062 1153.6641,-179.91796 -14.5743,-39.26954 -18.0703,-39.98046 -19.8203,-39.26954 -23.9023,-37.83984 -25.6485,-36.41016 -29.1484,-37.125 -30.3164,-34.98437 -34.9766,-33.55859 -35.5586,-32.83985 -38.4765,-31.41406 -41.3867,-29.98828 -43.1407,-27.84375 -45.4687,-27.13281 -47.2188,-26.41407 -48.9687,-23.5625 -50.7188,-21.41796 -51.3007,-21.417974 -54.2149,-17.851562 -54.7969,-16.417969 -55.3789,-14.996094 -57.7148,-12.851562 -57.7109,-9.992188 -58.2969,-9.285156 -58.875,-6.421875 -59.461,-4.285156 -60.0468,-2.1406252 -59.461,0 -60.0429,2.1406252 -60.0469,2.855469 -58.293,5.710937 -58.8789,9.28125 -58.2969,9.28125 -57.7109,12.851563 -56.5469,13.566406 -54.7969,15.707031 -53.6328,17.847656 -53.0468,19.992184 -51.3008,20.70313 -48.3867,23.5625 -47.8008,24.98828 -46.0547,26.41797 -43.7188,27.84375 -41.3906,29.98437 -39.0586,31.41797 -37.3086,32.125 -34.9765,33.5586 -32.6446,34.98437 -29.7304,35.69531 -25.6524,37.83985 -25.0664,36.41406 -21.5703,39.26953 -18.0703,38.55078 -15.1563,39.98438 -12.8242,39.98047 1162.9922,152.07421"
       id="path25"
       inkscape:connector-curvature="0" />
    <path
       style="fill:none;stroke:#6b8f91;stroke-width:0.05;stroke-linecap:butt;stroke-linejoin:miter;stroke-miterlimit:10;stroke-opacity:1"
       d="m 97.299648,-49.772252 -0.757812,-1.999023 -0.874414,-1.963477 -1.020313,-1.963281 -1.16582,-1.85625 -1.34082,-1.856445 -1.428125,-1.820508 -1.544922,-1.749219 -1.748828,-1.677929 -1.807227,-1.60625 -1.865429,-1.570704 -2.098633,-1.570898 -2.098633,-1.392187 -2.302734,-1.356446 -2.360938,-1.249414 -2.419141,-1.249414 -2.535937,-1.071094 -2.594141,-0.999414 -2.710742,-0.928125 -2.739844,-0.785351 -2.739843,-0.749805 -2.885743,-0.642578 -2.914648,-0.499609 -2.914844,-0.464258 -2.943945,-0.321094 -2.94375,-0.214258 -3.031445,-0.107031 -2.973047,0 -2.973047,0.107031 -2.973047,0.142774 -2.973047,0.285546 -2.914844,0.464063 -2.914843,0.428516 -2.856446,0.606836 -2.798047,0.749609 -2.798242,0.785351 -2.652539,0.892383 -2.652344,0.99961 -2.535937,1.035156 -2.477539,1.142383 -2.360938,1.285156 -2.302539,1.320898 -2.186133,1.356446 -2.069531,1.499414 -1.982031,1.534961 -1.86543,1.642187 -1.748828,1.677735 -1.574023,1.713476 -1.515625,1.85625 -1.311719,1.784961 -1.224219,1.891992 -1.049219,1.891992 -0.961914,1.963477 -0.757812,1.999023 -0.612109,1.999219"
       transform="matrix(20,0,0,20,2225.05,1628.738)"
       id="path27"
       inkscape:connector-curvature="0" />
    <path
       style="fill:#b5c7c7;fill-opacity:1;fill-rule:evenodd;stroke:none"
       d="m 1448.6484,1238.0195 581.7891,-624.71481 -36.1445,-25.70313 -37.8907,-24.27734 -38.4765,-21.41797 -39.6406,-21.41797 -40.2227,-18.5625 -41.9727,-17.13672 -43.1367,-14.27734 -42.5586,-13.56641 -44.8867,-10.71094 -44.3047,-9.28125 -45.4687,-6.42578 -45.4727,-4.99609 -45.4687,-2.85547 -45.4727,0 -46.0508,1.42578 -45.4726,4.28516 -45.4688,5 -44.8867,7.85156 -44.3047,9.99609 -43.7226,11.42188 -43.7227,13.56641 -41.9726,15.70703 -41.9727,17.84765 -40.2227,19.27735 -39.05856,21.42187 -37.30859,23.5586 -37.30859,24.98828 -34.97657,25.70312 -33.22656,28.5586 -32.64844,29.27343 -30.3125,31.41407 -27.98047,31.41406 -26.8164,34.26953 -24.48438,34.26953 -23.32031,35.69922 -20.40234,37.125 -19.23828,37.83984 -16.32032,37.83985 -14.57422,39.26951 -11.66015,39.9805 -9.32813,39.9844 -8.16015,41.4101 -5.82813,41.4063 -2.33203,40.6992 -1.16797,40.6953 1.75,41.4102 3.4961,42.1211 6.99609,39.9843 891.3359,-131.3711"
       id="path29"
       inkscape:connector-curvature="0" />
    <path
       style="fill:none;stroke:#6b8f91;stroke-width:0.05;stroke-linecap:butt;stroke-linejoin:miter;stroke-miterlimit:10;stroke-opacity:1"
       d="m -9.876328,-50.878892 -1.807227,-1.285156 -1.836328,-1.17793 -1.923633,-1.106641 -2.011328,-0.999609 -2.069336,-0.963867 -2.069531,-0.820899 -2.127734,-0.749804 -2.186133,-0.642579 -2.186133,-0.499804 -2.273437,-0.464063 -2.244336,-0.321289 -2.244532,-0.249805 -2.273437,-0.142773 -2.331836,0 -2.215234,0.07129 -2.273438,0.214258 -2.331836,0.25 -2.215234,0.42832 -2.186133,0.464063 -2.244336,0.642578 -2.127734,0.642578 -2.098633,0.821094 -2.069531,0.892383 -2.04043,0.963867 -1.952734,1.070898 -1.86543,1.178125 -1.807227,1.213672 -1.748828,1.356445 -1.719726,1.356641 -1.544922,1.534961 -1.544727,1.499414 -1.42832,1.641992 -1.311524,1.642188 -1.253515,1.713476 -1.107617,1.820703 -1.020118,1.85625 -0.961914,1.891993 -0.845117,1.891992 -0.699609,1.999023 -0.583008,1.927735 -0.524609,2.034765 -0.349805,2.070508 -0.291406,2.034766 -0.116602,2.034765 -0.0584,2.070508 0.145703,2.034766 0.175,2.070507 0.291406,2.070508"
       transform="matrix(20,0,0,20,2225.05,1628.738)"
       id="path31"
       inkscape:connector-curvature="0" />
    <path
       style="fill:#b5c7c7;fill-opacity:1;fill-rule:evenodd;stroke:none"
       d="m 1286.5898,2697.3594 -936.22652,-22.1328 0,37.8398 1.75,35.6992 4.66406,37.8399 7.57813,35.6953 8.74609,36.414 11.07422,37.125 14.57422,34.2696 15.15625,34.9844 19.23828,34.2695 20.40234,32.8437 21.57032,33.5547 25.64843,31.4141 25.65235,30.7031 29.14844,29.2695 29.73046,28.5586 32.0625,27.1328 34.39454,24.9883 34.97656,24.2735 36.72656,24.2773 38.47266,20.7031 39.64062,19.9922 41.39063,19.2774 83.94531,31.414 44.30469,13.5625 44.88676,11.4258 45.4726,9.2813 46.0508,8.5664 46.0547,6.4257 46.6367,4.2852 47.2188,2.1406 47.8007,0 46.0547,-1.4258 47.2188,-2.8593 46.6367,-4.2813 46.0508,-6.4258 46.6367,-9.2812 44.3047,-10.7109 45.4726,-11.4219 42.5547,-14.9961 43.1367,-14.2774 41.9727,-17.8476 39.6445,-19.2774 40.2227,-20.707 36.7265,-22.1328 36.7266,-22.8438 -612.1016,-557.6054"
       id="path33"
       inkscape:connector-curvature="0" />
    <path
       style="fill:none;stroke:#6b8f91;stroke-width:0.05;stroke-linecap:butt;stroke-linejoin:miter;stroke-miterlimit:10;stroke-opacity:1"
       d="m -93.675938,52.324428 -0.0875,1.820508 0.175,1.856445 0.174804,1.820508 0.378906,1.85625 0.437305,1.784961 0.582813,1.820703 0.699609,1.784766 0.816211,1.749219 0.903516,1.677929 0.961914,1.677735 1.136718,1.606445 1.195118,1.606445 1.369921,1.499219 1.399024,1.534961 1.515625,1.356641 1.574023,1.356445 1.690625,1.320898 1.748828,1.213672 1.836329,1.142383 1.923632,1.070898 1.982032,0.99961 2.011328,0.928125 2.098633,0.856836 2.185937,0.785351 2.157031,0.606836 2.215235,0.571094 2.273437,0.535547 2.331836,0.357031 2.302735,0.392578 2.302734,0.142774 2.360937,0.178515 4.692774,0 2.331836,-0.178515 2.33164,-0.249805 2.302735,-0.321289 2.331836,-0.42832 2.215234,-0.499805 2.273438,-0.606836 2.157031,-0.714063 2.098633,-0.785351 2.098632,-0.856836 2.011133,-0.928125 2.011133,-0.999414 1.894727,-1.106641 1.777929,-1.142383"
       transform="matrix(20,0,0,20,2225.05,1628.738)"
       id="path35"
       inkscape:connector-curvature="0" />
    <path
       style="fill:#b5c7c7;fill-opacity:1;fill-rule:evenodd;stroke:none"
       d="m 4265.4805,1105.2227 823.7148,206.3359 13.9883,-30.6992 10.4961,-30.7031 9.9101,-31.4141 5.8282,-32.1289 5.8281,-32.125 1.168,-32.1289 0,-32.8438 -1.168,-31.414 -4.6602,-32.1289 -6.414,-32.12895 -9.3282,-31.41406 -11.0742,-31.41407 -12.8281,-29.98437 -15.1562,-30.70313 -17.4883,-29.26953 -19.8203,-29.27343 -22.1524,-28.5586 -22.7344,-27.1289 -25.0664,-26.41797 -26.8164,-24.98828 -28.5664,-25.70313 -31.4765,-22.84766 -31.4805,-22.13281 -34.3945,-20.70312 -34.3946,-19.99219 -36.1445,-17.84766 -37.3086,-17.85156 -39.0547,-15.70703 -39.6445,-14.27734 -40.8047,-12.85157 -41.9727,-10.71093 -41.3906,-9.28125 -43.7226,-8.56641 -43.1368,-6.42578 -43.7226,-5 -44.3047,-2.14063 -43.7188,-2.14062 -43.7226,0 -44.3047,2.14062 -44.3047,2.85547 -43.1367,5 -43.7227,6.42578 -43.1406,7.85157 -42.5547,9.99609 283.8985,600.44145"
       id="path37"
       inkscape:connector-curvature="0" />
    <path
       style="fill:none;stroke:#6b8f91;stroke-width:0.05;stroke-linecap:butt;stroke-linejoin:miter;stroke-miterlimit:10;stroke-opacity:1"
       d="m 139.41801,-10.04022 3.76015,-5.747461 0.69942,-1.499219 0.5539,-1.570703 0.43711,-1.570703 0.34981,-1.606446 0.2332,-1.606445 0.0875,-1.570703 0.0291,-1.677734 -0.0875,-1.570704 -0.2039,-1.606445 -0.32071,-1.606445 -0.4664,-1.570703 -0.55371,-1.570703 -0.61211,-1.535157 -0.75782,-1.463476 -0.90371,-1.535156 -0.99101,-1.463477 -1.02012,-1.42793 -1.19512,-1.35664 -1.25332,-1.320703 -1.34082,-1.285157 -1.42812,-1.213867 -1.51582,-1.142187 -1.60313,-1.142383 -1.66133,-1.070899 -1.77792,-0.963867 -1.80723,-0.928125 -1.86543,-0.856836 -1.95293,-0.713867 -1.98203,-0.749805 -2.01114,-0.678125 -2.06953,-0.571289 -2.12773,-0.464062 -2.09863,-0.428321 -2.15703,-0.321289 -2.18614,-0.214257 -2.21504,-0.142774 -2.21523,-0.107031 -2.24453,0 -2.18594,0.107031 -2.215234,0.142774 -2.186133,0.214257 -2.156836,0.321289 -2.127929,0.392579 -2.127735,0.499804"
       transform="matrix(20,0,0,20,2225.05,1628.738)"
       id="path39"
       inkscape:connector-curvature="0" />
    <path
       style="fill:#b5c7c7;fill-opacity:1;fill-rule:evenodd;stroke:none"
       d="m 4382.6562,1944.1289 927.4766,261.3086 18.6563,-34.2695 15.1562,-33.5547 13.9922,-35.6992 11.0742,-35.6993 7.5781,-35.6953 5.2461,-35.6992 1.75,-37.125 0,-36.414 -3.4961,-36.4102 -5.25,-35.6992 -9.3242,-36.4141 -11.0781,-34.9805 -14.5742,-34.9843 -15.7383,-34.9844 -19.8203,-33.5586 -22.1524,-32.1289 -23.9023,-32.8398 -27.3984,-32.129 -29.1485,-29.9882 -819.0469,396.9648"
       id="path41"
       inkscape:connector-curvature="0" />
    <path
       style="fill:none;stroke:#6b8f91;stroke-width:0.05;stroke-linecap:butt;stroke-linejoin:miter;stroke-miterlimit:10;stroke-opacity:1"
       d="m 148.36644,34.760952 5.8295,-5.854493 0.87441,-1.677929 0.87442,-1.784766 0.67031,-1.749219 0.5539,-1.820703 0.37891,-1.784765 0.29141,-1.784961 0.1166,-1.85625 -0.0291,-1.820704 -0.17481,-1.85625 -0.3207,-1.78496 -0.40801,-1.784961 -0.5539,-1.784766 -0.72872,-1.784961 -0.81601,-1.749219 -1.02031,-1.713476 -1.07832,-1.606446 -1.28262,-1.642187 -1.31153,-1.570703 -1.48652,-1.499219 -9.32734,-5.890234"
       transform="matrix(20,0,0,20,2225.05,1628.738)"
       id="path43"
       inkscape:connector-curvature="0" />
    <path
       style="fill:#b5c7c7;fill-opacity:1;fill-rule:evenodd;stroke:none"
       d="m 4343.5977,2633.8164 -292.6446,991.6914 43.1407,15.707 43.7187,14.2813 43.7227,10.7109 45.4726,8.5664 44.3008,6.4258 44.3047,2.8555 46.0547,0 44.8867,-2.8555 44.3047,-4.2851 44.8867,-8.5664 43.7226,-10.711 43.7227,-12.1367 43.1367,-15.707 42.5586,-19.2774 40.8047,-20.7031 40.8086,-23.5625 39.6406,-25.7031 38.4727,-28.5586 37.3086,-29.2695 35.5625,-33.5586 33.8086,-34.9844 32.6484,-36.4102 31.4766,-39.2695 29.7304,-40.6953 26.8164,-42.125 25.6524,-44.2656 24.4844,-44.9766 21.5664,-47.125 19.2382,-47.1211 18.0704,-49.2617 15.1601,-50.6914 13.9883,-51.4063 11.0781,-51.4062 9.3242,-52.8321 5.8321,-52.1171 5.2461,-53.5469 1.164,-53.5508 0,-53.5469 -2.3281,-53.5468 -4.6641,-53.5469 -6.9961,-52.8321 -8.746,-52.121 -11.6563,-51.4024 -848.7812,293.4375"
       id="path45"
       inkscape:connector-curvature="0" />
    <path
       style="fill:none;stroke:#6b8f91;stroke-width:0.05;stroke-linecap:butt;stroke-linejoin:miter;stroke-miterlimit:10;stroke-opacity:1"
       d="m 91.411758,99.874233 2.186133,0.856837 2.156836,0.67812 2.215234,0.57129 2.215229,0.35703 2.27364,0.28555 2.21523,0.14277 2.24434,0.0713 2.24433,-0.21406 2.27344,-0.21426 2.21524,-0.42832 2.18613,-0.53554 2.18613,-0.67813 2.15684,-0.785546 2.09863,-0.928125 2.09863,-1.070898 2.01133,-1.142383 1.95274,-1.249414 1.89472,-1.42793 1.86543,-1.570703 1.77793,-1.641992 1.69063,-1.784961 1.63222,-1.820703 1.57403,-1.891992 1.45742,-2.070508 1.39902,-2.141797 1.22422,-2.141797 1.22422,-2.320508 1.07851,-2.356055 0.96172,-2.356054 0.87442,-2.463086 0.78711,-2.570313 0.69941,-2.53457 0.52481,-2.606055 0.46621,-2.605859 0.3498,-2.606055 0.2041,-2.677344 0.0582,-2.677343 0,-2.677344 -0.14571,-2.677344 -0.2039,-2.677343 -0.37891,-2.641602 -0.49551,-2.606055 -0.49551,-2.570312"
       transform="matrix(20,0,0,20,2225.05,1628.738)"
       id="path47"
       inkscape:connector-curvature="0" />
    <path
       style="fill:#b5c7c7;fill-opacity:1;fill-rule:evenodd;stroke:none"
       d="m 636.01172,2070.5 -44.30469,-673.2656 -32.64453,3.5703 -30.89844,4.2812 -32.64453,7.1407 -31.48047,8.5664 -30.89453,9.9961 -30.3125,12.8515 -29.73047,12.1367 -29.14844,16.4219 -29.14843,15.7071 -27.39844,17.8515 -26.81641,19.9883 -25.64843,20.707 -25.06641,22.1328 -22.73828,24.2735 -22.73438,24.2734 -20.98437,25.7031 -19.82031,27.1329 -18.07422,28.5585 -18.070315,28.5586 -15.738281,30.6993 -13.410156,31.414 -12.824219,31.4141 -12.242188,31.414 -9.328125,32.8438 -7.578125,33.5547 -6.996093,33.5547 -5.246094,34.2734 -2.332031,34.9844 -1.7460942,33.5547 0,34.2695 1.7460942,33.5586 3.5,34.9805 5.246093,33.5586 5.828125,33.5546 8.746094,33.5586 9.324219,32.8399 11.660156,32.1289 12.824219,31.4141 14.574219,30.6992 15.742187,30.7031 18.070315,27.8437 18.07031,28.5586 20.40625,27.1289 21.56641,25.7032 22.15234,24.9883 23.90234,22.8476 25.06641,22.1328 25.65234,21.418 27.39844,19.2773 26.8125,17.8516 29.14844,16.418 288.5625,-599.7266"
       id="path49"
       inkscape:connector-curvature="0" />
    <path
       style="fill:none;stroke:#6b8f91;stroke-width:0.05;stroke-linecap:butt;stroke-linejoin:miter;stroke-miterlimit:10;stroke-opacity:1"
       d="m -81.667148,-11.575181 -1.544727,0.178515 -1.603125,0.214063 -1.574023,0.357031 -1.515625,0.392774 -1.544922,0.499609 -1.515625,0.535547 -1.457422,0.67832 -1.428125,0.713867 -1.42832,0.785352 -1.311719,0.892578 -1.369922,0.963867 -1.25332,0.999414 -1.224217,1.070899 -1.16582,1.178125 -1.16602,1.213672 -1.02011,1.213867 -1.02012,1.356445 -0.90371,1.356641 -0.87442,1.427734 -0.75781,1.463672 -0.72871,1.499414 -0.69942,1.499219 -0.583,1.570703 -0.52461,1.606445 -0.43731,1.642188 -0.3205,1.641992 -0.32071,1.67793 -0.1748,1.677734 -0.1166,1.67793 0,3.355468 0.1748,1.67793 0.17481,1.677734 0.2625,1.67793 0.3789,1.641992 0.37891,1.606446 0.52461,1.570703 0.64121,1.642187 0.64121,1.534961 0.72871,1.463672 0.81621,1.463477 0.84531,1.427929 0.90352,1.356641 0.99102,1.320898 1.07851,1.249414 1.13672,1.213672 1.16582,1.142383 1.253515,1.070899 1.224023,1.035156 1.340821,0.92832 1.369922,0.856641 1.399218,0.821094"
       transform="matrix(20,0,0,20,2225.05,1628.738)"
       id="path51"
       inkscape:connector-curvature="0" />
    <path
       style="fill:#b5c7c7;fill-opacity:1;fill-rule:evenodd;stroke:none"
       d="m 2997.5586,3151.4375 -1326.8047,77.8242 8.7461,39.2656 11.0742,39.9844 15.1563,38.5508 19.2383,37.8398 20.4023,36.4141 25.0703,37.125 27.3984,35.6992 30.8946,35.6992 34.3945,33.5547 36.7266,33.5547 38.4765,31.4141 42.5547,30.7031 44.3047,29.2734 47.2188,28.5547 49.5507,25.7032 51.3008,25.7031 109.5938,45.6953 57.7148,19.9883 58.875,19.2773 123.586,31.4141 62.3789,12.8515 65.289,11.4258 65.293,9.2813 65.8711,7.1406 65.293,5.7109 67.039,2.8555 67.6211,2.1406 66.457,0 67.625,-2.8554 66.4532,-4.2852 65.875,-6.4258 65.2929,-9.2812 65.2891,-9.9922 62.9609,-12.1406 62.9571,-14.9922 61.2109,-14.2774 60.625,-17.8515 58.2969,-19.9883 55.9648,-21.4219 54.7969,-22.8437 53.0469,-24.9883 50.7187,-25.7031 48.3828,-27.1329 44.8907,-28.5585 43.7187,-29.9844 40.2266,-31.4141 38.4726,-32.8437 35.5625,-33.5547 31.4766,-33.5586 29.1484,-35.6953 26.8164,-37.1289 22.7344,-36.4102 -1263.2578,-251.3164"
       id="path53"
       inkscape:connector-curvature="0" />
    <path
       style="fill:none;stroke:#6b8f91;stroke-width:0.05;stroke-linecap:butt;stroke-linejoin:miter;stroke-miterlimit:10;stroke-opacity:1"
       d="m -27.656406,80.097475 0.378906,1.927734 0.582813,1.963477 0.72871,1.927539 0.961915,1.891992 1.078515,1.891992 1.195117,1.784961 1.399024,1.784961 1.515625,1.784961 1.719726,1.677735 1.836328,1.677734 1.923829,1.570703 2.127734,1.535156 2.273437,1.46367 2.302735,1.42774 2.477539,1.28515 2.565039,1.28516 2.739844,1.14238 2.739843,1.10664 2.885743,1.03516 2.94375,0.96387 3.031445,0.78535 3.089648,0.78535 3.147852,0.64258 3.264648,0.57129 3.235352,0.46406 3.29375,0.32129 3.293555,0.32129 3.322851,0.14277 3.352149,0.10703 3.351953,-0.0357 3.322851,-0.10703 3.322852,-0.28555 3.351953,-0.25 3.264453,-0.46406 3.20625,-0.53535 3.20625,-0.57129 3.11875,-0.67813 3.060547,-0.78535 3.002148,-0.89258 2.885743,-0.99941 2.856445,-1.07109 2.739844,-1.10664 2.623242,-1.17794 2.535937,-1.32089 2.390039,-1.35645 2.331836,-1.42793 2.157032,-1.5707 2.040234,-1.535158 1.923828,-1.641992 1.719727,-1.606445 1.632226,-1.784961 1.457422,-1.749219 1.282422,-1.820507 1.19512,-1.856251"
       transform="matrix(20,0,0,20,2225.05,1628.738)"
       id="path55"
       inkscape:connector-curvature="0" />
  </g>
</svg>
